<svg xmlns="http://www.w3.org/2000/svg" xmlns:xlink="http://www.w3.org/1999/xlink" width="221" height="62" viewBox="0 0 221 62">
    <defs>
        <path id="a" d="M0 62h220.805V.367H0z"/>
    </defs>
    <g fill="none" fill-rule="evenodd">
        <path fill="#FFE511" d="M0 62h221V0H0z"/>
        <path fill="#0060A8" d="M76.904 37.995h-3.18l3.046-11.123h.09l.044.156 3.18 10.967h-3.18zm17.981-9.624c0-1.79 1.232-2.752 3.291-2.752h8.6v-3.962h-9.383c-7.725 0-9.63 3.11-9.63 7.14 0 7.676 12.765 7.162 12.765 11.795 0 1.745-1.053 2.932-3.202 2.932h-8.33l-7.367-21.867h-8.8l-7.815 22.762-4.792-9.4c3.74-.605 5.217-2.73 5.24-6.625 0-4.388-2.911-6.737-7.479-6.737H44.637v25.739h6.673V25.619h3.986c2.127 0 3.493 1.387 3.493 3.916 0 2.149-1.276 3.917-3.314 3.805l-2.732.022 7.21 14.034H70.59l1.813-5.685H81.494l1.769 5.685H97.93c4.837 0 9.718-.582 9.718-7.207 0-8.102-12.763-6.939-12.763-11.818zM28.873 42.628h-5.06v-8.863l2.597-.045h2.463c3.852.09 5.06 1.769 5.06 4.477 0 3.984-3.179 4.387-5.06 4.431zm-5.06-21.755h5.06c2.71.023 4.635 1.723 4.635 4.007 0 3.044-2.485 4.006-4.254 4.006H26.41l-2.597.023v-8.036zm10.994 10.274v-.09c4.411-.694 6.628-3.29 6.628-6.916 0-6.692-5.128-8.125-11.33-8.125H15.663v31.38H30.06c3.448 0 12.025-.336 12.025-8.281 0-4.32-1.523-7.319-7.278-7.968zM194.82 32.982H191.103v-7.363h3.539c2.887.067 3.56 1.835 3.56 3.894 0 1.7-1.367 3.469-3.382 3.469m1.657-11.325H184.386v25.739h6.717V36.92h4.971c7.86 0 8.934-4.633 8.934-7.542 0-4.723-2.418-7.722-8.53-7.722"/>
        <mask id="b" fill="#fff">
            <use xlink:href="#a"/>
        </mask>
        <path fill="#0060A8" d="M110.11 47.396h6.675v-25.74h-6.674zM170.144 37.75h-3.18l3.046-11.125h.09l.044.157 3.18 10.967h-3.18zm0-16.093h-4.075L157.538 46.5l-.314.895h6.584l1.813-5.685h9.113l1.77 5.685h7.03l-8.665-25.74h-4.725zM157.85 38.89h-6.716c-.09 2.082.044 5.35-3.09 5.35-3.83 0-4.322-2.91-4.322-9.624 0-6.715.492-9.624 4.322-9.624 2.015 0 2.777 1.297 2.777 4.79h6.672c.268-5.619-2.53-8.708-9.45-8.708-8.486 0-10.546 3.783-11.038 8.618-.157 1.567-.157 3.245-.157 4.924 0 1.678 0 3.335.157 4.88.492 4.834 2.552 8.639 11.039 8.639 5.238 0 8.508-1.545 9.494-6.021.2-.94.313-2.015.313-3.223M127.936 43.524V21.657h-6.674v25.739H137.161v-3.872h-.156z" mask="url(#b)"/>
    </g>
</svg>
