<svg xmlns="http://www.w3.org/2000/svg" width="173" height="38" viewBox="0 0 173 38">
    <g fill="none" fill-rule="evenodd">
        <g fill="#63B150" fill-rule="nonzero">
            <path d="M54.672 20.92h-6.73a1.815 1.815 0 0 0-1.381.529 1.801 1.801 0 0 0-.525 1.378v4.804h7.662v.828h-7.662v8.435h-1.002v-14.25a2.492 2.492 0 0 1 .743-1.887 2.69 2.69 0 0 1 1.948-.719c3.147 0 5.487.04 7.022.122l-.075.76zM59.126 36.894h-1V20.072h1zM76.066 20.072v16.333c0 .326-.157.489-.47.489h-1.322a.572.572 0 0 1-.558-.367L66.42 22.78a52.736 52.736 0 0 1-.906-1.805h-.565V36.894h-.974V20.56a.433.433 0 0 1 .49-.489h1.22a.593.593 0 0 1 .585.367l7.097 13.428c.137.21.498.917 1.104 2.097h.613v-1.153-14.704l.98-.035zM89.817 30.97h-7.785l-2.043 5.924h-1.056l5.864-16.537a.443.443 0 0 1 .443-.312h1.362a.443.443 0 0 1 .443.312l5.898 16.51h-1.055l-2.071-5.897zm-.32-.882l-2.725-7.824-.49-1.357h-.681l-.49 1.357-2.725 7.824h7.11zM107.873 20.072v16.333c0 .326-.157.489-.463.489h-1.321a.586.586 0 0 1-.566-.367L98.235 22.78c-.456-.883-.762-1.48-.905-1.805h-.566V36.894h-1.008V20.56a.433.433 0 0 1 .49-.489h1.227a.6.6 0 0 1 .585.367l7.097 13.428c.13.21.498.917 1.104 2.097h.606v-1.153-14.704l1.008-.035zM122.925 35.964l.17.76c-1.543.333-3.12.488-4.699.462-2.33 0-3.969-.652-4.918-1.955-.949-1.302-1.42-3.546-1.416-6.731 0-3.203.472-5.453 1.416-6.752.947-1.303 2.589-1.947 4.918-1.947a18.62 18.62 0 0 1 4.36.434l-.178.733a30.468 30.468 0 0 0-4.182-.265c-1.975 0-3.349.572-4.12 1.717-.773 1.145-1.16 3.18-1.165 6.107 0 2.909.388 4.945 1.164 6.107.777 1.163 2.15 1.735 4.121 1.717a27.883 27.883 0 0 0 4.53-.387zM136.22 36.039l.048.753c-1.566.068-3.964.102-7.192.102a2.69 2.69 0 0 1-1.948-.72c-.501-.49-.77-1.167-.743-1.865V22.657a2.465 2.465 0 0 1 .743-1.866 2.69 2.69 0 0 1 1.948-.719c3.228 0 5.626.032 7.192.095l-.048.753h-7.008a1.809 1.809 0 0 0-1.362.53 1.882 1.882 0 0 0-.511 1.357v4.682h7.833v.828h-7.806v5.802c-.016.501.167.99.511 1.357a1.83 1.83 0 0 0 1.362.522l6.981.04zM141.03 36.894h-1.002V20.072h1.001zM157.015 36.894h-1.104l-1.716-5.293c-.484-1.411-1.362-2.117-2.643-2.117-1.28 0-2.765 0-4.672-.075v7.465h-1.001V20.072c1.32-.131 3.155-.197 5.503-.197 1.88 0 3.18.333 3.916.998.736.665 1.104 1.92 1.104 3.76a5.629 5.629 0 0 1-.722 3.202 3.307 3.307 0 0 1-2.391 1.235v.109c.867.244 1.512 1.024 1.934 2.34l1.792 5.375zM146.88 28.58h4.502c1.505-.034 2.54-.319 3.12-.855.578-.536.871-1.56.871-3.074 0-1.513-.293-2.537-.872-3.08-.579-.543-1.614-.821-3.12-.821-1.761 0-3.262.018-4.501.054v7.776zM161.564 21.714c.945-1.289 2.59-1.934 4.938-1.934 2.35 0 3.998.638 4.931 1.92.934 1.283 1.41 3.55 1.41 6.786 0 3.237-.47 5.497-1.41 6.786-.94 1.29-2.58 1.927-4.93 1.927-2.35 0-3.992-.678-4.939-1.94-.946-1.263-1.423-3.543-1.423-6.786 0-3.244.477-5.463 1.423-6.759zm9.066.679c-.777-1.145-2.153-1.717-4.128-1.717-1.968 0-3.35.577-4.134 1.73-.783 1.154-1.172 3.176-1.172 6.067 0 2.89.389 4.92 1.172 6.073.783 1.154 2.166 1.73 4.134 1.73 1.969 0 3.351-.57 4.128-1.716.776-1.147 1.164-3.176 1.164-6.108 0-2.93-.388-4.906-1.164-6.06z"/>
        </g>
        <g fill="#989898" fill-rule="nonzero">
            <path d="M45.28 15.024V2.274l.946-.435h3.406A4.484 4.484 0 0 1 52.935 3.1a4.185 4.185 0 0 1 1.206 3.101v4.458a4.205 4.205 0 0 1-1.206 3.101 4.484 4.484 0 0 1-3.303 1.263H45.28zm1.784-1.568h2.547a2.64 2.64 0 0 0 2.044-.902c.459-.523.702-1.2.68-1.894V6.202a2.742 2.742 0 0 0-.68-1.893 2.62 2.62 0 0 0-2.044-.903h-2.547v10.05zM64.024 14.59l-1.696.786h-.089v-.916a2.539 2.539 0 0 1-1.92.74 3.413 3.413 0 0 1-2.589-.95 3.298 3.298 0 0 1-.933-2.334 3.204 3.204 0 0 1 1.008-2.375 3.474 3.474 0 0 1 2.52-.943 2.73 2.73 0 0 1 1.92.74c0-1.032-.183-1.71-.55-2.037a2.048 2.048 0 0 0-1.363-.468h-2.173v-.088l.681-1.466h1.458c.964-.03 1.9.324 2.602.984a3.387 3.387 0 0 1 1.103 2.51l.02 5.816zm-5.483-2.715c-.015.474.159.935.483 1.283.344.34.818.517 1.301.488.489.036.97-.132 1.33-.464.359-.333.563-.798.564-1.287a1.619 1.619 0 0 0-.552-1.275 1.911 1.911 0 0 0-1.362-.496 1.726 1.726 0 0 0-1.238.515c-.326.331-.503.78-.492 1.243l-.034-.007zM66.748 15.376V8.74a3.387 3.387 0 0 1 1.103-2.51 3.617 3.617 0 0 1 2.602-.985h1.206v.082l-.681 1.472h-.49a2.048 2.048 0 0 0-1.363.469c-.402.38-.607.922-.558 1.472v5.85l-1.696.786h-.123zM86.18 5.069v6.636a3.387 3.387 0 0 1-1.11 2.511 3.61 3.61 0 0 1-2.595.984 3.412 3.412 0 0 1-2.46-1.011 2.471 2.471 0 0 1-.36-.455c-.098.163-.217.31-.354.441a3.535 3.535 0 0 1-2.452 1.025 3.652 3.652 0 0 1-2.609-.95 3.387 3.387 0 0 1-1.11-2.51V5.89l1.703-.787h.088v6.636c-.048.55.157 1.092.559 1.473a2.206 2.206 0 0 0 2.724 0c.402-.38.607-.923.559-1.473V5.89l1.702-.787h.089v6.636c-.049.55.157 1.092.558 1.473a2.206 2.206 0 0 0 2.725 0c.402-.38.607-.923.558-1.473V5.89l1.696-.787.089-.034zM89.436 3.488a1.07 1.07 0 0 1 0-1.513c.307-.308.77-.4 1.173-.235a1.072 1.072 0 0 1 0 1.982 1.08 1.08 0 0 1-1.173-.234zm-.137 11.888v-9.5l1.703-.787h.089v9.5l-1.696.787h-.096zM94.217 15.376V8.74a3.387 3.387 0 0 1 1.103-2.51 3.92 3.92 0 0 1 5.197 0 3.347 3.347 0 0 1 1.11 2.51v5.85l-1.696.786h-.095V8.74a1.822 1.822 0 0 0-.552-1.472 2.048 2.048 0 0 0-1.362-.469 2.048 2.048 0 0 0-1.362.469c-.402.38-.607.922-.559 1.472v5.85l-1.696.786h-.088z"/>
        </g>
        <g fill-rule="nonzero" transform="translate(0 .475)">
            <rect width="37" height="37" fill="#35693D" rx="3.58"/>
            <path fill="#6BBF5E" d="M19.83 16.452c-2.206-.81-4.106-1.5-4.106-2.881 0-1.189 1.333-1.992 3.172-1.992a7.427 7.427 0 0 1 4.245 1.58l.04.033a.976.976 0 0 0 .74.18.906.906 0 0 0 .667-.439l1.332-2.277a.874.874 0 0 0-.133-1.082 9.64 9.64 0 0 0-5.105-2.204V4.967a.901.901 0 0 0-.933-.897h-2.232a.915.915 0 0 0-.933.897v2.49c-3.518.756-5.864 3.22-5.864 6.213 0 4.23 3.998 5.723 6.984 6.825 2.112.79 3.931 1.48 3.931 2.702 0 1.507-1.552 2.191-2.992 2.191a8.467 8.467 0 0 1-5.011-1.992.875.875 0 0 0-.706-.245.98.98 0 0 0-.667.338L10.547 25.6a.894.894 0 0 0 .046 1.149 10.859 10.859 0 0 0 5.998 2.881v2.404c.01.503.427.903.933.896h2.239a.915.915 0 0 0 .933-.896v-2.41c3.565-.664 5.944-3.32 5.944-6.593-.02-4.116-3.792-5.477-6.81-6.579z"/>
        </g>
    </g>
</svg>
