<?xml version="1.0" encoding="UTF-8"?>
<svg width="76px" height="60px" viewBox="0 0 76 60" version="1.1" xmlns="http://www.w3.org/2000/svg" xmlns:xlink="http://www.w3.org/1999/xlink">
    <!-- Generator: Sketch 53.2 (72643) - https://sketchapp.com -->
    <title>Icone-Monitor Copy</title>
    <desc>Created with Sketch.</desc>
    <g id="Page-1" stroke="none" stroke-width="1" fill="none" fill-rule="evenodd" opacity="0.303827195">
        <g id="Artboard-Copy-17" transform="translate(-44.000000, -52.000000)" fill="#E2E2E2" fill-rule="nonzero">
            <g id="Icone-Monitor-Copy" transform="translate(44.000000, 52.000000)">
                <path d="M69.5256722,57.926567 C69.0235373,58.6981239 68.1635392,59.1625918 67.241896,59.1599891 L8.20066504,59.1599891 C7.2790219,59.1625918 6.41902376,58.6981239 5.91688883,57.926567 C-4.1519482,42.1569579 -1.11014569,21.4007404 13.0618581,9.17174587 C27.233862,-3.05724862 48.246138,-3.05724862 62.4181419,9.17174587 C76.5901457,21.4007404 79.6319482,42.1569579 69.5631112,57.926567 L69.5256722,57.926567 Z M10.6710249,32.6403062 C7.57787988,32.6617867 5.08576553,35.1828628 5.1000612,38.2760122 C5.11435686,41.3691615 7.62966766,43.8670953 10.7228791,43.8599849 C13.8160905,43.8528744 16.3198904,41.343403 16.3199649,38.2502206 C16.3252602,36.7539906 15.7305459,35.3180803 14.6688775,34.2637465 C13.6072092,33.2094127 12.1672004,32.6246567 10.6710249,32.6403062 L10.6710249,32.6403062 Z M18.8700649,13.2600341 C16.6010718,13.2600341 14.5554983,14.6268426 13.6871923,16.7231189 C12.8188862,18.8193952 13.2988455,21.2323136 14.9032659,22.8367341 C16.5076864,24.4411545 18.9206048,24.9211138 21.0168811,24.0528077 C23.1131574,23.1845017 24.4799659,21.1389282 24.4799659,18.8699351 C24.4851646,17.3805092 23.8957928,15.9505863 22.8426032,14.8973968 C21.7894137,13.8442072 20.3594908,13.2548354 18.8700649,13.2600341 Z M46.8366057,22.7098174 C47.1979853,21.3110834 46.3532551,19.8860759 44.9146535,19.467603 C43.4524855,19.1008812 41.9518426,19.9181242 41.5320175,21.3097703 L37.1691859,37.152409 C32.9653015,37.5000528 29.7019913,40.8145792 29.5833318,44.8573197 C29.4646724,48.9000601 32.5284041,52.3851948 36.705248,52.9588245 C40.8820919,53.5324541 44.8435757,51.0121321 45.9140686,47.1001123 C46.7007745,43.8656891 45.3344338,40.5001838 42.4737741,38.6261428 L46.8366057,22.7098174 Z M38.2499829,5.1000341 C35.1516749,5.1000341 32.64,7.61170902 32.64,10.7100171 C32.64,13.8083251 35.1516749,16.32 38.2499829,16.32 C41.348291,16.32 43.8599659,13.8083251 43.8599659,10.7100171 C43.8651647,9.22056939 43.2757842,7.79062567 42.2225793,6.73742071 C41.1693743,5.68421576 39.7394306,5.09483529 38.2499829,5.1000341 L38.2499829,5.1000341 Z M56.6099829,13.2600341 C53.5116749,13.2600341 51,15.771709 51,18.8700171 C51,21.9683251 53.5116749,24.48 56.6099829,24.48 C59.708291,24.48 62.2199659,21.9683251 62.2199659,18.8700171 C62.2251647,17.3805694 61.6357842,15.9506257 60.5825793,14.8974207 C59.5293743,13.8442158 58.0994306,13.2548353 56.6099829,13.2600341 L56.6099829,13.2600341 Z M64.7699829,32.6400341 C61.6716749,32.6400341 59.16,35.151709 59.16,38.2500171 C59.16,41.3483251 61.6716749,43.86 64.7699829,43.86 C67.868291,43.86 70.3799659,41.3483251 70.3799659,38.2500171 C70.3851647,36.7605694 69.7957842,35.3306257 68.7425793,34.2774207 C67.6893743,33.2242158 66.2594306,32.6348353 64.7699829,32.6400341 L64.7699829,32.6400341 Z" id="Shape"></path>
            </g>
        </g>
    </g>
</svg>