<?xml version="1.0" encoding="UTF-8"?>
<svg width="60px" height="82px" viewBox="0 0 60 82" version="1.1" xmlns="http://www.w3.org/2000/svg" xmlns:xlink="http://www.w3.org/1999/xlink">
    <!-- Generator: Sketch 53.2 (72643) - https://sketchapp.com -->
    <title>Icone-Malthus Copy</title>
    <desc>Created with Sketch.</desc>
    <g id="Page-1" stroke="none" stroke-width="1" fill="none" fill-rule="evenodd" opacity="0.303827195">
        <g id="Artboard-Copy-15" transform="translate(-52.000000, -41.000000)" fill="#E2E2E2" fill-rule="nonzero">
            <g id="Icone-Malthus-Copy" transform="translate(52.000000, 41.000000)">
                <path d="M54.446607,82 C24.0120897,82 7.72488344,82 5.58498819,82 C2.37514532,82 0.054259461,79.9451919 0.0325315061,76.4594595 C-0.0406643826,64.716924 0.0325315061,52.1106487 0.0325315061,40.3676867 C0.0379177838,38.6712187 0.729223873,37.0466406 1.95378627,35.8527136 C3.17834867,34.6587865 4.83542925,33.9937284 6.55908919,34.0044064 C7.41569989,34.0044064 8.29270608,34.0044064 9.33287621,34.0044064 C9.33287621,28.7250918 9.33287621,23.7468788 9.33287621,18.7686659 C8.98543654,11.1428772 13.7853904,4.20375546 21.121471,1.72631579 C23.0386473,0.983598531 26.6843236,5.56549284e-15 30.0157976,1.42108547e-14 C33.3472716,2.20844364e-14 35.2555475,0.541982864 36.3772996,0.843084455 C45.0701136,2.67558071 51.1219146,10.4527291 50.6541446,19.1902081 L50.6541446,31.655814 C50.6541446,32.3784578 50.5317716,33.1011016 50.6541446,33.9040392 C51.1844274,33.9040392 51.6535237,33.9040392 51.9798516,33.9040392 C57.778081,33.9040392 59.9952802,36.7781784 59.9952802,41.9334149 C59.9952802,52.3716034 59.9990637,66.021271 59.9990637,76.4594595 C60.0467276,78.8636624 58.2756462,82 54.446607,82 Z M18.2457065,33.8237454 L41.7209187,33.8237454 C41.7209187,28.644798 41.5781503,23.5862913 41.7209187,18.547858 C42.0014986,14.8060816 39.7300085,11.3339064 36.1529492,10.0367197 C31.6959675,7.87612431 26.4130207,8.1810819 22.2432231,10.8396573 C20.0461874,11.8613841 18.5528218,13.940406 18.306893,16.3197062 C18.1845201,22.1410037 18.2864975,27.9422277 18.2864975,33.8638923 L18.2457065,33.8237454 Z M35.7042484,70.2168911 C35.0311971,66.7642595 34.4193323,63.4320685 33.7666765,60.1801714 C33.363184,59.0259401 33.7288202,57.7464285 34.6844737,56.9684211 C35.946861,55.7658781 36.659573,54.1107441 36.659573,52.3816401 C36.659573,50.6525362 35.946861,48.9974022 34.6844737,47.7948592 C33.422002,46.5506727 31.7087165,45.8515571 29.9221262,45.8515571 C28.1355358,45.8515571 26.4222503,46.5506727 25.1597786,47.7948592 C23.8973913,48.9974022 23.1846793,50.6525362 23.1846793,52.3816401 C23.1846793,54.1107441 23.8973913,55.7658781 25.1597786,56.9684211 C26.1500498,57.8116567 26.5142789,59.1659061 26.0775758,60.3809058 C25.42492,63.6328029 24.8130552,66.8847001 24.1603995,70.4176255 L35.7042484,70.2168911 Z" id="Shape"></path>
            </g>
        </g>
    </g>
</svg>