<?xml version="1.0" encoding="UTF-8"?>
<svg width="479px" height="372px" viewBox="0 0 479 372" version="1.1" xmlns="http://www.w3.org/2000/svg" xmlns:xlink="http://www.w3.org/1999/xlink">
    <!-- Generator: Sketch 53.2 (72643) - https://sketchapp.com -->
    <title>noun_Call Center_281786 (1)</title>
    <desc>Created with Sketch.</desc>
    <g id="Page-1" stroke="none" stroke-width="1" fill="none" fill-rule="evenodd">
        <g id="noun_Call-Center_281786-(1)" fill="#E2E2E2" fill-rule="nonzero">
            <g id="Group">
                <path d="M434.849971,190.744261 C433.41846,192.075423 431.843774,192.744403 430.282809,192.530683 C429.433834,192.412139 428.654712,192.040343 427.961562,191.469178 C419.498685,215.296472 399.875556,232.043471 377.03922,232.043471 C354.192138,232.043471 334.563636,215.285695 326.111505,191.442236 C325.407608,192.034955 324.612367,192.412139 323.763392,192.530683 C321.964303,192.778919 320.14794,191.855659 318.55363,190.098401 L319.190752,205.209476 C318.282672,205.495059 317.331605,205.667486 316.326807,205.710593 L314.209744,205.802195 C317.637881,214.391229 322.796206,222.20434 329.340831,228.729635 C331.527746,227.948324 334.031683,228.158469 336.12188,229.527111 L342.585906,233.740802 C346.159121,236.068571 347.169293,240.853428 344.848047,244.436682 C342.5268,248.00916 337.749976,249.027558 334.182135,246.694402 L327.723481,242.48071 C325.192678,240.831874 323.946083,237.949106 324.268478,235.136386 C315.929186,227.01075 309.529638,217.031522 305.623282,206.028506 C300.23928,205.435787 295.935302,200.963455 295.693506,195.364956 L294.285713,161.800909 C294.103022,157.495616 296.365163,153.659109 299.836286,151.638477 C302.125292,132.876234 309.588744,115.52035 321.436773,101.839324 C336.057401,84.9468388 355.567691,75.6519309 376.37831,75.6519309 C397.178182,75.6519309 416.699219,84.9468388 431.314474,101.839324 C443.081903,115.428748 450.523862,132.633758 452.866601,151.250515 C456.740718,153.141827 459.341374,157.204645 459.13719,161.811686 L457.724024,195.375733 C457.460735,201.556173 452.25405,206.351807 446.096299,206.093166 L437.10147,205.710593 C436.102044,205.667486 435.145605,205.495059 434.242898,205.209476 L434.849971,190.744261 Z M436.027557,162.685013 L436.558771,150.027359 C437.493717,149.817214 438.460903,149.725612 439.454956,149.768718 L440.346916,149.806437 C434.640519,114.588165 408.128876,87.8673258 376.372936,87.8673258 C344.611623,87.8673258 318.099981,114.593554 312.40433,149.833379 L313.967947,149.768718 C314.962,149.725612 315.939932,149.817214 316.864132,150.027359 L317.414662,163.084669 C318.077233,162.57164 318.809281,162.244102 319.599119,162.134987 C320.313762,162.037997 321.028405,162.129599 321.726928,162.372075 C323.021883,126.959823 347.335864,98.633254 377.03922,98.633254 C406.737203,98.633254 431.045811,126.959823 432.340765,162.361298 C433.028542,162.12421 433.743185,162.037997 434.436335,162.134987 C434.997205,162.212375 435.529006,162.399633 436.027557,162.685013 Z M333.741528,149.801048 C332.607771,154.742168 331.989846,159.952704 331.984473,165.341057 C331.984473,196.410297 352.193287,221.692446 377.028474,221.692446 C400.600945,221.692446 419.982278,198.915881 421.895157,170.0397 C417.258037,170.185186 398.403284,169.560137 383.675191,151.282845 C369.634874,133.862302 345.218801,134.918419 333.741528,149.801048 Z M220.768831,238.218523 C281.217955,238.218523 330.227419,287.365686 330.222045,347.979262 L330.222045,368.417283 C330.222045,369.500341 330.168313,370.572624 330.14682,371.644906 L0.331025966,371.644906 C0.298786433,370.567235 0.245053878,369.494953 0.245053878,368.417283 L0.245053878,347.979262 C0.245053878,287.360297 49.254517,238.218523 109.703641,238.218523 L122.19646,238.218523 L168.879303,285.032529 L215.562147,238.218523 L220.768831,238.218523 Z M267.714964,149.434641 C257.521899,203.776175 276.828006,224.758419 276.828006,224.758419 C276.828006,224.758419 234.970346,223.158078 214.589588,209.697974 C214.589588,209.697974 167.697187,252.217463 118.5319,208.625692 C118.5319,208.625692 86.3031134,223.686137 53.5799876,224.769196 C53.5799876,224.769196 73.3696875,204.859233 68.5445041,151.589981 C65.1109939,113.769136 62.9079591,55.1115315 100.235965,24.2416605 C116.076322,9.66616725 140.202239,0.355094276 167.251207,0.355094276 C198.233398,0.355094276 225.395204,12.5758776 240.628384,30.9339942 C268.472593,59.2443978 275.968285,105.44952 267.714964,149.434641 Z M220.054188,174.722178 C237.22174,144.590512 237.232486,104.23714 237.232486,104.23714 C237.232486,104.23714 216.309029,102.626023 205.578638,73.5720269 C205.578638,73.5720269 199.141478,91.3266481 166.407606,104.23714 C133.679107,117.147633 135.291083,131.135796 135.291083,131.135796 C135.291083,131.135796 127.241947,106.387093 142.265569,85.943684 C142.265569,85.943684 127.779272,99.9318469 109.542443,102.351217 C96.3242349,104.10782 92.7080339,127.385502 100.069394,151.536098 C112.938341,159.985035 127.408518,165.777513 142.544978,168.530961 C144.839358,165.341057 148.536158,163.212658 152.76491,163.099502 L165.811175,162.749259 C173.022083,162.555279 179.02401,168.261544 179.212074,175.487324 C179.400138,182.713105 173.720607,188.731895 166.515071,188.925875 L153.468807,189.276118 C148.358841,189.410827 143.872172,186.581942 141.610032,182.357474 C130.444407,180.466162 119.590431,177.087665 109.343633,172.367468 C110.574108,174.409654 111.906676,176.408733 113.325215,178.353928 C135.31795,208.480206 191.296525,225.194875 220.054188,174.722178 Z M410.39639,235.368085 C448.175749,235.368085 478.663601,265.5698 478.663601,303.460694 L478.663601,328.942213 C478.663601,329.599592 478.787186,331.086777 478.760319,331.086777 L342.795463,331.086777 C338.43238,299.850498 322.065443,271.513153 298.455359,252.222851 C303.833988,247.421829 309.964872,243.412895 316.649202,240.492408 C317.68624,244.048721 320.061219,247.179353 323.295919,249.286199 L329.754572,253.505279 C332.328361,255.186445 335.310518,256.080911 338.373274,256.080911 C343.751903,256.080911 348.716791,253.392124 351.650588,248.871296 C353.547347,245.945421 354.417815,242.566924 354.170645,239.150708 C355.830981,239.905078 357.523556,240.637893 359.216132,241.182117 L377.549679,319.043809 L395.523219,241.359933 C400.27855,239.824252 404.62014,237.383329 408.76292,235.368085 L410.39639,235.368085 Z" id="Combined-Shape"></path>
            </g>
        </g>
    </g>
</svg>