<?xml version="1.0" encoding="UTF-8"?>
<svg width="63px" height="67px" viewBox="0 0 63 67" version="1.1" xmlns="http://www.w3.org/2000/svg" xmlns:xlink="http://www.w3.org/1999/xlink">
    <!-- Generator: Sketch 53.2 (72643) - https://sketchapp.com -->
    <title>Icone-PosVenda Copy</title>
    <desc>Created with Sketch.</desc>
    <g id="Page-1" stroke="none" stroke-width="1" fill="none" fill-rule="evenodd" opacity="0.303827195">
        <g id="Artboard-Copy-18" transform="translate(-50.000000, -48.000000)" fill="#E2E2E2" fill-rule="nonzero">
            <g id="Icone-PosVenda-Copy" transform="translate(50.000000, 48.000000)">
                <path d="M62.0133362,20.879196 C62.2332569,22.3093394 61.3016157,23.6614014 59.89847,23.9484359 L41.4616118,26.9487042 C40.0156227,27.1673367 38.6609732,26.1803457 38.4087,24.7243674 C38.3068008,24.0203277 38.4778963,23.3037092 38.8862504,22.7241885 L43.6276441,16.085664 C38.3219561,12.5054766 31.7069346,11.5219911 25.6063833,13.4063608 C19.505832,15.2907305 14.564016,19.8439513 12.1434256,25.8106714 C11.5513904,27.496277 11.0895113,29.2257515 10.7619404,30.9835476 C10.6991936,31.5742725 10.2512112,32.0484111 9.67039649,32.1388233 L1.53498357,33.4837712 C0.806144965,33.5978684 0.12201473,33.0983411 0,32.3629813 L0,32.0698517 C0.81696137,16.9680397 11.9638487,4.4983213 26.7428249,2.15338394 C34.8050275,0.866755242 43.0500488,2.71502284 49.8187445,7.3262602 L54.2872523,1.11880868 C54.684755,0.535985582 55.3011842,0.143364782 55.9927896,0.0325046699 C57.4373552,-0.195260885 58.7930647,0.798051732 59.0286459,2.25684146 L62.0133362,20.879196 Z M62.9830555,34.8955733 C61.8520237,50.1453813 51.6389756,62.35559 36.6823465,64.8425349 C28.7395655,66.1471339 20.6098788,64.2933731 13.9604246,59.6613997 L9.58822718,65.8787619 C9.19069157,66.4581301 8.58255895,66.8500908 7.90012005,66.9668003 C6.47218036,67.1962131 5.12790045,66.2127676 4.8784083,64.7561827 L1.94110191,46.0868254 C1.71757461,44.620264 2.68816871,43.2424054 4.11876009,42.9954147 L22.2827927,39.9903563 C23.3279379,39.8192942 24.3708785,40.3092617 24.9251895,41.2317391 C25.4795004,42.1542164 25.4359908,43.3274894 24.8149534,44.2043463 L20.1726588,50.8016585 C25.3961764,54.404568 31.927987,55.4090759 37.9560199,53.5365091 C43.9840528,51.6639424 48.8671794,47.1134632 51.250711,41.1474765 C51.8510574,39.4624604 52.3140538,37.7294998 52.6349588,35.9663413 C52.6895996,35.3774338 53.1272846,34.9012226 53.6984663,34.8092211 L61.4806402,33.5139373 C62.1997468,33.4092457 62.8709903,33.9052148 62.9999366,34.6365166 C63.000671,34.7231798 62.995028,34.8097767 62.9830555,34.8955733 Z" id="Shape"></path>
            </g>
        </g>
    </g>
</svg>