<?xml version="1.0" encoding="UTF-8"?>
<svg width="74px" height="76px" viewBox="0 0 74 76" version="1.1" xmlns="http://www.w3.org/2000/svg" xmlns:xlink="http://www.w3.org/1999/xlink">
    <!-- Generator: Sketch 53.2 (72643) - https://sketchapp.com -->
    <title>Icone-Contabilidade Copy</title>
    <desc>Created with Sketch.</desc>
    <g id="Page-1" stroke="none" stroke-width="1" fill="none" fill-rule="evenodd" opacity="0.303827195">
        <g id="Artboard-Copy-19" transform="translate(-45.000000, -44.000000)" fill="#E2E2E2" fill-rule="nonzero">
            <g id="Icone-Contabilidade-Copy" transform="translate(45.000000, 44.000000)">
                <path d="M61.4907236,0 L43,3.13728461 L55.5092764,76 L74,72.8051505 L61.4907236,0 Z M56.8320965,5.46866124 C56.889384,5.4614373 56.9473507,5.4614373 57.0046382,5.46866124 C57.2416347,5.46052452 57.469353,5.56123339 57.6229128,5.7420943 C57.8094397,5.93737151 57.9214138,6.19208341 57.9392393,6.46165499 C57.9529035,6.72613317 57.8824265,6.9881365 57.7379406,7.20999811 C57.6036144,7.41824038 57.3910972,7.56350261 57.148423,7.61295209 L49.3409091,9.21037682 C49.2237328,9.24600864 49.0986235,9.24600864 48.9814471,9.21037682 C48.8578686,9.1787389 48.7409809,9.12511793 48.6363636,9.05207347 C48.4297142,8.86473918 48.2970665,8.60942149 48.2625232,8.33251278 C48.2338352,8.19487933 48.2338352,8.05280103 48.2625232,7.91516758 C48.28879,7.77406553 48.3373253,7.63804646 48.406308,7.5122136 C48.5390676,7.28790409 48.756923,7.12696365 49.0102041,7.06608597 L56.8320965,5.46866124 Z M58.169295,13.2111343 C58.4101791,13.2142286 58.6370245,13.3251117 58.7875696,13.5133497 C58.966604,13.7135458 59.0773853,13.9655446 59.1038961,14.2329104 C59.1196053,14.4976017 59.0489589,14.7602353 58.9025974,14.9812536 C58.7682711,15.1894958 58.5557539,15.3347581 58.3130798,15.3842075 L50.5055659,16.9960235 C50.3874595,17.0247128 50.2642103,17.0247128 50.1461039,16.9960235 C50.0195256,16.9652706 49.9015479,16.9062295 49.8010204,16.8233289 C49.5922617,16.6376315 49.4591731,16.3814652 49.42718,16.1037682 C49.3983859,15.9709961 49.3983859,15.8335863 49.42718,15.7008142 C49.4533777,15.5551256 49.5018765,15.4143547 49.5709647,15.283469 C49.7014241,15.0598416 49.9211974,14.9027216 50.1748609,14.8517326 L57.9967532,13.2399167 L58.169295,13.2111343 Z M59.3051948,20.9823897 C59.5472682,20.9971553 59.7741279,21.1055251 59.9378479,21.2846052 C60.1212706,21.4834638 60.2370429,21.7353655 60.2685529,22.0041659 C60.2775297,22.2681256 60.2074263,22.5287403 60.0672542,22.752509 C59.933371,22.9639395 59.7215108,23.1139246 59.4777365,23.1698542 L51.6558442,24.7672789 C51.5328947,24.7961046 51.4049532,24.7961046 51.2820037,24.7672789 C51.1642849,24.7358506 51.0558107,24.6766304 50.9656772,24.5945844 C50.759999,24.4124826 50.6271925,24.1619718 50.5918367,23.8894149 C50.5631401,23.7420925 50.5631401,23.5906096 50.5918367,23.4432873 C50.6156664,23.3105775 50.664459,23.1836043 50.7356215,23.0691157 C50.8615149,22.8387021 51.0824319,22.6754999 51.3395176,22.6229881 L59.16141,21.0255633 C59.2063341,21.0025845 59.2550517,20.9879563 59.3051948,20.9823897 L59.3051948,20.9823897 Z M62.6122449,58.0541564 C65.057451,58.1909152 66.9702253,60.2153505 66.9702253,62.6665404 C66.9702253,65.1177304 65.057451,67.1421657 62.6122449,67.2789244 C60.9044326,67.3744413 59.2838828,66.5168124 58.4012309,65.0503677 C57.518579,63.583923 57.518579,61.7491579 58.4012309,60.2827132 C59.2838828,58.8162684 60.9044326,57.9586396 62.6122449,58.0541564 L62.6122449,58.0541564 Z" id="Shape"></path>
                <path d="M0.902681992,3.00011481 C0.401798425,3.00800798 -6.31113297e-05,3.4133544 0,3.91062471 L0,75.0893753 C-6.31113297e-05,75.5866456 0.401798425,75.991992 0.902681992,75.9998852 L18.0536398,75.9998852 C18.3007776,76.0037483 18.539336,75.9099832 18.7168196,75.739223 C18.8943032,75.5684629 18.9961686,75.3347002 19,75.0893753 L19,3.91062471 C18.9961686,3.66529977 18.8943032,3.43153708 18.7168196,3.26077696 C18.539336,3.09001684 18.3007776,2.99625167 18.0536398,3.00011481 L0.902681992,3.00011481 Z M5.50344828,8.15967094 L13.5402299,8.15967094 C13.8069944,8.17579837 14.0549416,8.3014805 14.2245211,8.50653186 C14.409162,8.71431656 14.5124953,8.98101145 14.5157088,9.25806384 C14.5128449,9.54824419 14.4100973,9.82872634 14.2245211,10.0529534 C14.051512,10.2477812 13.8018575,10.3585103 13.5402299,10.3564567 L5.50344828,10.3564567 C5.24606274,10.358172 5.00101505,10.2471234 4.83371648,10.0529534 C4.65754313,9.82543869 4.56506807,9.54494967 4.57164751,9.25806384 C4.56412894,8.98426818 4.65728683,8.71712044 4.83371648,8.50653186 C4.99761934,8.30224091 5.24088526,8.17625102 5.50344828,8.15967094 L5.50344828,8.15967094 Z M5.50344828,16.1085669 L13.5402299,16.1085669 C13.8037505,16.112046 14.0530317,16.2278745 14.2245211,16.4265228 C14.4101027,16.6451135 14.5130782,16.9211068 14.5157088,17.2069598 C14.5128449,17.4971402 14.4100973,17.7776223 14.2245211,18.0018494 C14.051512,18.1966772 13.8018575,18.3074063 13.5402299,18.3053527 L5.50344828,18.3053527 C5.24606274,18.307068 5.00101505,18.1960194 4.83371648,18.0018494 C4.65754313,17.7743347 4.56506807,17.4938457 4.57164751,17.2069598 C4.56484269,16.9244662 4.65752335,16.6484648 4.83371648,16.4265228 C4.99948903,16.2285579 5.24414673,16.1124064 5.50344828,16.1085669 L5.50344828,16.1085669 Z M5.50344828,24.0285579 L13.5402299,24.0285579 C13.8018575,24.0265043 14.051512,24.1372334 14.2245211,24.3320612 C14.4100973,24.5562883 14.5128449,24.8367704 14.5157088,25.1269508 C14.5130782,25.4128038 14.4101027,25.6887971 14.2245211,25.9073878 C14.0530317,26.1060361 13.8037505,26.2218646 13.5402299,26.2253437 L5.50344828,26.2253437 C5.24414673,26.2215042 4.99948903,26.1053527 4.83371648,25.9073878 C4.65752335,25.6854459 4.56484269,25.4094444 4.57164751,25.1269508 C4.56506807,24.8400649 4.65754313,24.5595759 4.83371648,24.3320612 C5.00101505,24.1378912 5.24606274,24.0268426 5.50344828,24.0285579 L5.50344828,24.0285579 Z M9.53639847,58.8591749 C12.1175362,58.8591749 14.2099617,60.9362445 14.2099617,63.4984397 C14.2099617,66.0606348 12.1175362,68.1377044 9.53639847,68.1377044 C6.95526077,68.1377044 4.86283525,66.0606348 4.86283525,63.4984397 C4.86272326,60.9530816 6.92865621,58.8829633 9.49272031,58.8591749 L9.53639847,58.8591749 Z" id="Shape"></path>
                <path d="M22.9180528,3.00011864 C22.6734037,2.99617199 22.4376049,3.09083255 22.264589,3.26244926 C22.0915731,3.43406598 21.9961408,3.66795787 22.0001196,3.91062845 L22.0001196,75.0893715 C21.9961408,75.3320421 22.0915731,75.565934 22.264589,75.7375507 C22.4376049,75.9091674 22.6734037,76.003828 22.9180528,75.9998814 L40.0819472,75.9998814 C40.5889077,75.9998814 40.9998804,75.5922322 40.9998804,75.0893715 L40.9998804,3.91062845 C41.0038592,3.66795787 40.9084269,3.43406598 40.735411,3.26244926 C40.5623951,3.09083255 40.3265963,2.99617199 40.0819472,3.00011864 L22.9180528,3.00011864 Z M27.4785782,8.15967424 L35.492281,8.15967424 C35.7550421,8.17625431 35.9984915,8.30224419 36.162518,8.50653512 C36.3472982,8.7143198 36.4507094,8.98101466 36.4539254,9.25806702 C36.4510593,9.54824734 36.3482342,9.82872946 36.162518,10.0529565 C35.9950932,10.2471264 35.7498607,10.358175 35.492281,10.3564598 L27.4785782,10.3564598 C27.2175443,10.3548266 26.9691514,10.2447401 26.7937709,10.0529565 C26.6080547,9.82872946 26.5052296,9.54824734 26.5023635,9.25806702 C26.5055795,8.98101466 26.6089907,8.7143198 26.7937709,8.50653512 C26.9656571,8.3041861 27.2125419,8.1791368 27.4785782,8.15967424 L27.4785782,8.15967424 Z M27.4785782,16.1085694 L35.492281,16.1085694 C35.7517781,16.1124089 35.9966204,16.2285603 36.162518,16.4265252 C36.3482396,16.6451159 36.4512927,16.9211092 36.4539254,17.2069622 C36.4510593,17.4971425 36.3482342,17.7776246 36.162518,18.0018517 C35.9950932,18.1960216 35.7498607,18.3070702 35.492281,18.305355 L27.4785782,18.305355 C27.2175443,18.3037218 26.9691514,18.1936352 26.7937709,18.0018517 C26.6080547,17.7776246 26.5052296,17.4971425 26.5023635,17.2069622 C26.5049962,16.9211092 26.6080493,16.6451159 26.7937709,16.4265252 C26.9676381,16.2308317 27.2157061,16.1156538 27.4785782,16.1085694 L27.4785782,16.1085694 Z M27.4785782,24.0285595 L35.492281,24.0285595 C35.7498607,24.0268443 35.9950932,24.1378929 36.162518,24.3320628 C36.3482342,24.5562898 36.4510593,24.836772 36.4539254,25.1269523 C36.4512927,25.4128053 36.3482396,25.6887986 36.162518,25.9073893 C35.9966204,26.1053541 35.7517781,26.2215056 35.492281,26.2253451 L27.4785782,26.2253451 C27.2157061,26.2182607 26.9676381,26.1030828 26.7937709,25.9073893 C26.6080493,25.6887986 26.5049962,25.4128053 26.5023635,25.1269523 C26.5052296,24.836772 26.6080547,24.5562898 26.7937709,24.3320628 C26.9691514,24.1402792 27.2175443,24.0301927 27.4785782,24.0285595 L27.4785782,24.0285595 Z M31.4854296,58.8591729 C34.0666022,58.8671489 36.1532941,60.9477368 36.1479375,63.5080422 C36.142581,66.0683475 34.0472013,68.1403268 31.4660176,68.1376764 C28.8848339,68.135026 26.7937834,66.058748 26.7937709,63.4984371 C26.8097473,60.9372 28.9032735,58.8670535 31.4854296,58.8591729 L31.4854296,58.8591729 Z" id="Shape"></path>
            </g>
        </g>
    </g>
</svg>