<?xml version="1.0" encoding="UTF-8"?>
<svg width="74px" height="68px" viewBox="0 0 74 68" version="1.1" xmlns="http://www.w3.org/2000/svg" xmlns:xlink="http://www.w3.org/1999/xlink">
    <!-- Generator: Sketch 53.2 (72643) - https://sketchapp.com -->
    <title>Icone-Produtos Copy</title>
    <desc>Created with Sketch.</desc>
    <g id="Page-1" stroke="none" stroke-width="1" fill="none" fill-rule="evenodd" opacity="0.303827195">
        <g id="Artboard" transform="translate(-45.000000, -48.000000)" fill="#E2E2E2">
            <g id="Icone-Produtos-Copy" transform="translate(45.000000, 48.000000)">
                <path d="M69.64,54.1859459 L69.64,42.16 L56.38,49.0589453 L56.38,61.54 M69.64,38.08 L54.8509048,30.94 L40.06,38.08 L54.8509048,45.22 L69.64,38.08 Z M52.3,27.3620845 L52.3,16.66 L39.04,23.2587387 L39.04,34 L52.3,27.3620845 Z M52.3,11.5607998 L36.9991426,4.42 L21.7,11.5607998 L36.9991426,18.7 L52.3,11.5607998 Z M34.96,54.8188905 L34.96,42.16 L20.68,49.3399683 L20.68,62.6582397 M33.94,38.08 L19.15,30.94 L4.36,38.08 L19.15,45.22 L33.94,38.08 Z M73.72,54.4361729 C73.72,56.2398559 72.8092146,57.9306098 71.3229328,58.7195223 L56.2048953,67.1335282 C55.597705,67.5088978 54.9554845,67.66 54.28157,67.66 C53.6043193,67.66 52.9637669,67.5088978 52.3565766,67.1335282 L37.2368709,58.7195223 C37.1351165,58.6813491 37.0683923,58.6447665 37,58.5684201 C36.9332758,58.6447665 36.8665516,58.6813491 36.7647972,58.7195223 L21.6450915,67.1335282 C21.0379012,67.5088978 20.3956807,67.66 19.7217662,67.66 C19.0445155,67.66 18.4056312,67.5088978 17.7967728,67.1335282 L2.67706719,58.7195223 C1.19245355,57.9306098 0.28,56.2398559 0.28,54.4361729 L0.28,38.8090259 C0.28,36.8924139 1.32757007,35.1650774 2.91393813,34.3761649 L17.56157,27.3888817 L17.56157,12.3613718 C17.56157,10.4463504 18.6074719,8.71742327 20.19384,7.92851081 L35.3118775,0.716960189 C35.8540117,0.452929002 36.4261718,0.34 37,0.34 C37.5754963,0.34 38.1493245,0.452929002 38.6881225,0.716960189 L53.8078281,7.92851081 C55.3941962,8.71742327 56.4400981,10.4463504 56.4400981,12.3613718 L56.4400981,27.3888817 L71.08773,34.3761649 C72.7074601,35.1650774 73.72,36.8924139 73.72,38.8090259 L73.72,54.4361729 Z" id="Fill-31-Copy"></path>
            </g>
        </g>
    </g>
</svg>