<?xml version="1.0" encoding="UTF-8"?>
<svg width="46px" height="80px" viewBox="0 0 46 80" version="1.1" xmlns="http://www.w3.org/2000/svg" xmlns:xlink="http://www.w3.org/1999/xlink">
    <!-- Generator: Sketch 53.2 (72643) - https://sketchapp.com -->
    <title>Icone-Financeiro Copy</title>
    <desc>Created with Sketch.</desc>
    <g id="Page-1" stroke="none" stroke-width="1" fill="none" fill-rule="evenodd" opacity="0.303827195">
        <g id="Artboard-Copy-16" transform="translate(-59.000000, -42.000000)" fill="#E2E2E2" fill-rule="nonzero">
            <g id="Icone-Financeiro-Copy" transform="translate(59.000000, 42.000000)">
                <path d="M26.6649625,34.3541033 C20.5842018,32.1212728 15.3485016,30.2178763 15.3485016,26.4110834 C15.3485016,23.1350452 19.0226772,20.9205166 24.0930396,20.9205166 C28.3546456,21.119482 32.4467903,22.6426735 35.795289,25.2763662 L35.9055142,25.3678757 C36.4896559,25.8016751 37.2258032,25.9800655 37.9446817,25.8620267 C38.7116762,25.7642919 39.3900253,25.3182627 39.7817695,24.654102 L43.4559452,18.376554 C44.044862,17.4180545 43.8925744,16.1815716 43.0885276,15.3933461 L43.0885276,15.3933461 C39.1006715,12.0317714 34.2053408,9.91800325 29.0164349,9.31711884 L29.0164349,2.69183494 C29.0117823,2.02199454 28.7363209,1.382296 28.252311,0.917324823 C27.768301,0.452353647 27.1166021,0.201362196 26.444512,0.221079892 L20.2902678,0.221079892 C19.6195959,0.20637638 18.9707844,0.459022637 18.4878882,0.922923868 C18.004992,1.3868251 17.7279757,2.02358879 17.7183448,2.69183494 L17.7183448,9.5550434 C8.01852118,11.6414588 1.55197206,18.4314597 1.55197206,26.6856117 C1.55197206,38.3439151 12.574499,42.4618402 20.8046524,45.4999538 C26.6282208,47.6778786 31.6434705,49.5812751 31.6434705,52.9488227 C31.6434705,57.1033516 27.3630559,58.9884462 23.3949462,58.9884462 C18.3114499,58.7114252 13.4590242,56.7828867 9.58004582,53.4978794 L9.58004582,53.4978794 C9.06584852,52.992443 8.35095352,52.7438413 7.63273274,52.8207095 C6.92054215,52.8774881 6.25995908,53.2131203 5.79564492,53.7541059 L1.07432923,59.5741066 C0.342761886,60.5215535 0.396914351,61.8548671 1.20292538,62.7403335 C5.74150542,67.0501419 11.5256101,69.8288912 17.7367157,70.6833534 L17.7367157,77.3086373 C17.766854,78.6963905 18.9154794,79.7998342 20.3086387,79.7793923 L26.4812537,79.7793923 C27.1519256,79.7940959 27.8007371,79.5414496 28.2836333,79.0775484 C28.7665295,78.6136471 29.0435459,77.9768834 29.0531767,77.3086373 L29.0531767,70.6650515 C38.8815965,68.8348626 45.44,61.5141069 45.44,52.4912755 C45.3848874,41.1441042 34.9869703,37.3922169 26.6649625,34.3541033 Z" id="Shape"></path>
            </g>
        </g>
    </g>
</svg>