<svg xmlns="http://www.w3.org/2000/svg" xmlns:xlink="http://www.w3.org/1999/xlink" width="107" height="20" viewBox="0 0 107 20">
    <defs>
        <path id="a" d="M101.155 12.784v-2.238h.091a1.967 1.967 0 0 0 1.918-1.964c0-1.165-.388-2.169-2.009-2.192V4.156h1.028c3.447 0 4.817 1.686 4.817 4.358 0 1.644-.617 4.27-5.046 4.27h-.799zm-12.055.457h-1.8v2.238h2.6l1 3.22h3.973L89.989 4.156h-2.672v2.9l1.783 6.185zm12.055-9.085V6.39h-1.987v4.156h2.009v2.238h-2.009v5.914h-3.79V4.156h5.777zm-13.838 9.085h-1.8l1.713-6.279h.046l.023.091V4.156h-2.311l-4.818 14.04v.5h3.539l1.028-3.22h2.557v-2.235h.023zm-7.124 2.466V13.88h.183a10.5 10.5 0 0 1-.183 1.827zm0-1.827v1.827c-.548 2.535-2.4 3.4-5.366 3.4-4.8 0-5.96-2.146-6.234-4.886V8.697c.274-2.74 1.439-4.864 6.234-4.864 3.9 0 5.5 1.735 5.343 4.932H76.4c0-1.964-.434-2.717-1.576-2.717-2.169 0-2.443 1.644-2.443 5.434s.274 5.434 2.443 5.434c1.781 0 1.69-1.85 1.735-3.014h3.631l.003-.022zm0 4.316l-.183.5h.183v-.5zm-11.622.5h.091v-2.19h-.092v2.192l.001-.002zm0-10v5.549a27.013 27.013 0 0 1-.091-2.763c-.017-.93.014-1.86.091-2.786zm0 7.809h-5.115V4.156h-3.768v14.542h8.905v-2.192l-.022-.001zm-33.955-1.027v-2.1h1.8l-1.8-6.211V4.156h2.672l4.156 12.35h4.7a1.579 1.579 0 0 0 1.8-1.667c0-2.626-7.216-2.329-7.216-6.668 0-2.283 1.073-4.042 5.434-4.042h5.3v2.239H46.6c-1.165 0-1.85.548-1.85 1.553 0 2.763 7.216 2.1 7.216 6.69 0 3.745-2.763 4.064-5.5 4.064h-8.288l-1-3.22h-2.562v.023zm22.537 3.22V4.156h-3.767v14.542h3.767zM34.616 4.156V7.19l-.023-.091h-.046l-1.713 6.279h1.8v2.1H32.1l-1.05 3.22h-6.001l-4.087-7.923 1.552-.019c1.142.069 1.872-.936 1.872-2.146 0-1.439-.776-2.215-1.964-2.215h-2.26v12.303h-3.79V4.156h7.535c2.58 0 4.224 1.324 4.224 3.813-.023 2.192-.845 3.4-2.968 3.745l2.717 5.32 4.43-12.878h2.306zM7.467 18.698v-2.694c1.073-.023 2.854-.251 2.854-2.512 0-1.53-.685-2.489-2.854-2.535v-2.74h.206a2.22 2.22 0 0 0 2.397-2.261 2.382 2.382 0 0 0-2.626-2.26V.956h.685c3.516 0 6.394.8 6.394 4.59 0 2.055-1.256 3.516-3.745 3.9v.05c3.242.365 4.11 2.055 4.11 4.5 0 4.5-4.841 4.681-6.8 4.681h-.621v.021zm0-17.742v2.74H4.612V8.24l1.461-.023h1.394v2.739H6.074l-1.461.046v5h2.854v2.694H0V.956h7.467z"/>
    </defs>
    <g fill="none" fill-rule="evenodd">
        <mask id="b" fill="#fff">
            <use xlink:href="#a"/>
        </mask>
        <use fill="#FFF" xlink:href="#a"/>
        <g fill="#FAFAFA" mask="url(#b)">
            <path d="M-22-17h151v54H-22z"/>
        </g>
    </g>
</svg>
