<svg xmlns="http://www.w3.org/2000/svg" xmlns:xlink="http://www.w3.org/1999/xlink" width="149" height="40" viewBox="0 0 149 40">
    <defs>
        <path id="a" d="M3.026.317A3.025 3.025 0 0 0 0 3.343v33.311a3.026 3.026 0 0 0 3.026 3.026h33.311a3.026 3.026 0 0 0 3.026-3.026V3.343A3.025 3.025 0 0 0 36.337.317H3.026z"/>
        <linearGradient id="b" x1="95.729%" x2="0%" y1="0%" y2="100%">
            <stop offset="0%" stop-color="#0F8765"/>
            <stop offset="100%" stop-color="#0F5BA0"/>
        </linearGradient>
    </defs>
    <g fill="none" fill-rule="evenodd">
        <g transform="translate(.16)">
            <mask id="c" fill="#fff">
                <use xlink:href="#a"/>
            </mask>
            <path fill="url(#b)" d="M3.026.317A3.025 3.025 0 0 0 0 3.343v33.311a3.026 3.026 0 0 0 3.026 3.026h33.311a3.026 3.026 0 0 0 3.026-3.026V3.343A3.025 3.025 0 0 0 36.337.317H3.026z" mask="url(#c)"/>
        </g>
        <path fill="#F2F2F2" d="M15.79 27.85h4.16a4.252 4.252 0 0 0 3.39-1.5 4.653 4.653 0 0 0 1.05-3.16v-7.45a4.655 4.655 0 0 0-1.05-3.17 4.272 4.272 0 0 0-3.39-1.5h-4.16v16.78zm-3 2.6V9.18l1.55-.73h5.52a7.248 7.248 0 0 1 5.39 2.11 7.067 7.067 0 0 1 2 5.18v7.43a7.093 7.093 0 0 1-2 5.17 7.212 7.212 0 0 1-5.39 2.11h-7.07z"/>
        <path fill="#989898" d="M57.11 28.32h4.24a4.36 4.36 0 0 0 3.44-1.54 4.766 4.766 0 0 0 1.07-3.23v-7.59a4.764 4.764 0 0 0-1.07-3.23 4.382 4.382 0 0 0-3.47-1.53h-4.23l.02 17.12zm-3 2.68V9.26l1.58-.74h5.64a7.372 7.372 0 0 1 5.51 2.16 7.198 7.198 0 0 1 2 5.28v7.59a7.246 7.246 0 0 1-2 5.29A7.367 7.367 0 0 1 61.33 31h-7.22zM76.23 25.64c-.025.806.261 1.59.8 2.19a2.85 2.85 0 0 0 2.18.83 3.002 3.002 0 0 0 2.26-.81 3.07 3.07 0 0 0 .89-2.14 2.822 2.822 0 0 0-.92-2.18 3.24 3.24 0 0 0-2.22-.83 2.805 2.805 0 0 0-2.17.88 3 3 0 0 0-.82 2.06zm9.14 4.61l-2.83 1.34h-.15v-1.56a4.187 4.187 0 0 1-3.2 1.26 5.6 5.6 0 0 1-4.33-1.68 5.693 5.693 0 0 1-1.55-4 5.486 5.486 0 0 1 1.68-4.05 5.705 5.705 0 0 1 4.2-1.61 4.565 4.565 0 0 1 3.2 1.26c0-1.75-.31-2.91-.92-3.46a3.279 3.279 0 0 0-2.28-.81h-3.62v-.09l1.22-2.53h2.4A5.996 5.996 0 0 1 83.52 16a5.77 5.77 0 0 1 1.85 4.27v9.98zM89.84 31.59V20.28A5.818 5.818 0 0 1 91.68 16a5.996 5.996 0 0 1 4.33-1.67h2v.15l-1.22 2.49h-.82a3.387 3.387 0 0 0-2.27.8 3.126 3.126 0 0 0-.91 2.51v10l-2.83 1.34-.12-.03zM122.29 14.03v11.31a5.793 5.793 0 0 1-1.85 4.27 6.002 6.002 0 0 1-4.33 1.68 5.6 5.6 0 0 1-4.091-1.73 4.11 4.11 0 0 1-.599-.77 4.872 4.872 0 0 1-.59.76 5.906 5.906 0 0 1-4.1 1.74 6.004 6.004 0 0 1-4.33-1.68 5.72 5.72 0 0 1-1.84-4.27v-10l2.82-1.34h.16v11.34a3.13 3.13 0 0 0 .93 2.51 3.66 3.66 0 0 0 4.54 0 3.109 3.109 0 0 0 .92-2.51v-10l2.86-1.31h.15v11.31c-.082.934.26 1.855.93 2.51a3.66 3.66 0 0 0 4.54 0 3.148 3.148 0 0 0 .93-2.51v-10l2.83-1.34.12.03zM127.5 31.59V15.37l2.83-1.34h.15v16.22l-2.83 1.34h-.15zm.22-20.26a1.852 1.852 0 0 1 0-2.57 1.76 1.76 0 0 1 2.49 0 1.842 1.842 0 0 1 0 2.57 1.76 1.76 0 0 1-2.489.001h-.001zM135.68 31.59V20.28a5.829 5.829 0 0 1 1.85-4.28 6.45 6.45 0 0 1 8.66 0 5.77 5.77 0 0 1 1.85 4.28v10l-2.83 1.34h-.15V20.28a3.127 3.127 0 0 0-.93-2.51 3.62 3.62 0 0 0-4.54 0 3.127 3.127 0 0 0-.93 2.51v10l-2.87 1.31h-.11z"/>
    </g>
</svg>
