<svg xmlns="http://www.w3.org/2000/svg" width="147" height="37" viewBox="0 0 147 37">
    <g fill="none" fill-rule="evenodd">
        <g fill="#CE7A45" fill-rule="nonzero">
            <path d="M58.935 19.814h1.396c.325 0 .488.17.488.51l.731 16.366h-.995l-.678-16.02h-.555l-5.128 14.093a.46.46 0 0 1-.468.34h-1.253a.488.488 0 0 1-.495-.34L46.925 20.67h-.562l-.678 16.021h-1.03l.732-16.333c.034-.34.203-.509.515-.509h1.395a.46.46 0 0 1 .461.34l4.275 11.84c.08.231.169.469.257.727s.19.529.291.841c.102.312.19.55.258.679h.59l.765-2.328 4.26-11.793a.474.474 0 0 1 .481-.34zM74.916 30.746h-7.77l-2.073 5.944h-1.05l5.887-16.557a.44.44 0 0 1 .44-.319h1.355a.44.44 0 0 1 .44.32l5.887 16.556h-1.05l-2.066-5.944zm-.319-.889L71.887 22l-.487-1.357h-.677L70.235 22l-2.77 7.858h7.132zM81.805 19.814V33.93a1.8 1.8 0 0 0 1.904 1.906h6.523v.733c-1.467.082-3.698.122-6.693.122a2.666 2.666 0 0 1-2.032-.746 2.615 2.615 0 0 1-.732-1.92v-14.21h1.03zM101.342 20.69h-5.826v16h-1.002v-16h-5.772v-.876h12.6zM115.683 19.814V36.69h-1.003v-8.61h-9.28v8.61h-1.003V19.814h1.003v7.383h9.28v-7.383zM132.097 19.814v10.593c0 2.384-.438 4.076-1.314 5.076-.877 1-2.376 1.501-4.498 1.506-2.146 0-3.663-.502-4.553-1.506-.89-1.005-1.341-2.697-1.355-5.076V19.814h1.003v10.593c0 2.09.364 3.558 1.09 4.404.725.848 1.979 1.269 3.774 1.269s3-.421 3.732-1.27c.732-.848 1.105-2.313 1.105-4.403V19.814h1.016zM142.888 28.934l-3.665-.61a3.643 3.643 0 0 1-2.527-1.317 5.232 5.232 0 0 1-.772-3.108 7.836 7.836 0 0 1 .298-2.388 2.307 2.307 0 0 1 1.01-1.317 4.236 4.236 0 0 1 1.564-.556c.767-.089 1.54-.12 2.31-.095 1.568.022 3.133.135 4.688.34l-.095.739c-2.258-.118-3.782-.177-4.572-.177h-1.355a7.568 7.568 0 0 0-1.023.122 1.78 1.78 0 0 0-.833.32 3.154 3.154 0 0 0-.535.597c-.195.29-.316.623-.353.97a9.516 9.516 0 0 0-.088 1.438c-.072.868.13 1.737.576 2.484a2.837 2.837 0 0 0 1.938.99l3.664.618c1.016.061 1.964.531 2.629 1.303.579.96.846 2.077.765 3.196a7.204 7.204 0 0 1-.318 2.375 2.51 2.51 0 0 1-1.05 1.357c-.489.3-1.032.498-1.599.584a15.9 15.9 0 0 1-2.31.136c-1.68.008-3.36-.099-5.026-.32l.074-.76c1.917.136 3.59.19 5.006.177a14.48 14.48 0 0 0 1.978-.15c.448-.072.875-.239 1.254-.488.374-.25.643-.63.758-1.065a6.484 6.484 0 0 0 .21-1.846 4.322 4.322 0 0 0-.589-2.592 3.006 3.006 0 0 0-2.012-.957z"/>
        </g>
        <g fill="#989898" fill-rule="nonzero">
            <path d="M45.19 14.752V1.954l.949-.44h3.387a4.426 4.426 0 0 1 3.313 1.268 4.197 4.197 0 0 1 1.206 3.115v4.472a4.204 4.204 0 0 1-1.206 3.107 4.433 4.433 0 0 1-3.293 1.276h-4.355zm1.789-1.58h2.54a2.62 2.62 0 0 0 2.073-.903 2.771 2.771 0 0 0 .678-1.9V5.897a2.771 2.771 0 0 0-.678-1.9 2.626 2.626 0 0 0-2.073-.91h-2.54v10.084zM63.908 14.311l-1.694.787h-.088v-.916a2.524 2.524 0 0 1-1.917.747 3.384 3.384 0 0 1-2.594-.991 3.3 3.3 0 0 1-.922-2.334 3.22 3.22 0 0 1 1.003-2.389 3.458 3.458 0 0 1 2.513-.943c.712-.013 1.4.255 1.917.746 0-1.038-.183-1.717-.549-2.036a1.976 1.976 0 0 0-1.354-.475h-2.175v-.101l.677-1.473h1.45a3.58 3.58 0 0 1 2.595.99 3.395 3.395 0 0 1 1.104 2.518l.034 5.87zm-5.474-2.714c-.017.482.164.95.501 1.296.342.346.816.527 1.301.495a1.773 1.773 0 0 0 1.89-1.764 1.637 1.637 0 0 0-.555-1.276 1.908 1.908 0 0 0-1.355-.495 1.72 1.72 0 0 0-1.3.516 1.76 1.76 0 0 0-.482 1.228zM66.584 15.098V8.441a3.395 3.395 0 0 1 1.104-2.517 3.594 3.594 0 0 1 2.594-.99h1.206v.087l-.718 1.473h-.488a2.03 2.03 0 0 0-1.355.468 1.84 1.84 0 0 0-.555 1.48v5.87l-1.694.786h-.094zM86.032 4.75v6.664c.001.955-.4 1.866-1.104 2.51a3.58 3.58 0 0 1-2.615 1.005 3.384 3.384 0 0 1-2.452-1.012 2.503 2.503 0 0 1-.352-.46 2.666 2.666 0 0 1-.36.447 3.54 3.54 0 0 1-2.452 1.025 3.634 3.634 0 0 1-2.594-.991 3.355 3.355 0 0 1-1.104-2.51V5.543l1.693-.794h.088v6.664c-.046.55.16 1.093.563 1.472.38.316.861.482 1.354.468a2.03 2.03 0 0 0 1.355-.468c.4-.38.604-.922.556-1.472v-5.87l1.7-.794h.088v6.664a1.834 1.834 0 0 0 .556 1.479 2.212 2.212 0 0 0 2.71 0c.399-.38.603-.923.555-1.473V5.544l1.707-.794h.108zM89.264 3.169a1.073 1.073 0 0 1 .758-1.832c.286 0 .559.115.759.319.203.197.316.47.312.753a1.069 1.069 0 1 1-1.829.76zm-.13 11.93V5.543l1.694-.794h.088v9.561l-1.693.787h-.088zM94.033 15.098V8.441a3.395 3.395 0 0 1 1.104-2.517 3.89 3.89 0 0 1 5.189 0 3.341 3.341 0 0 1 1.104 2.517v5.87l-1.694.787h-.088V8.441a1.813 1.813 0 0 0-.555-1.479 2.03 2.03 0 0 0-1.355-.468 2.03 2.03 0 0 0-1.355.468 1.82 1.82 0 0 0-.562 1.48v5.87l-1.694.786h-.094z"/>
        </g>
        <g fill-rule="nonzero">
            <rect width="37" height="37" fill="#914615" rx="3.59"/>
            <path fill="#EC9B68" d="M26.641 32.19H10.37c-1.07 0-1.842-.686-1.85-1.85-.024-3.92 0-8.13 0-12.051a2.118 2.118 0 0 1 .64-1.508c.408-.398.96-.62 1.534-.617h.924v-5.087c-.116-2.546 1.483-4.863 3.926-5.69.638-.249 1.852-.577 2.961-.577 1.11 0 1.745.181 2.119.282 2.895.611 4.91 3.208 4.754 6.126v4.162c0 .241-.04.483 0 .75h.442c1.93 0 2.669.96 2.669 2.682l.001 11.528c.016.803-.574 1.85-1.849 1.85zM14.586 16.104h7.817c0-1.73-.047-3.418 0-5.1A2.807 2.807 0 0 0 20.55 8.16a4.754 4.754 0 0 0-4.632.268 2.28 2.28 0 0 0-1.31 1.83c-.041 1.944-.008 3.881-.008 5.858l-.013-.013zM20.4 28.256c-.224-1.153-.428-2.266-.646-3.352a.97.97 0 0 1 .306-1.072c.42-.402.658-.954.658-1.532 0-.577-.238-1.13-.658-1.531a2.256 2.256 0 0 0-1.586-.65c-.595 0-1.165.234-1.586.65-.42.401-.657.954-.657 1.531 0 .578.237 1.13.657 1.532.33.281.451.734.306 1.14a220.843 220.843 0 0 0-.638 3.35l3.844-.066z"/>
        </g>
    </g>
</svg>
