<svg xmlns="http://www.w3.org/2000/svg" width="186" height="37" viewBox="0 0 186 37">
    <g fill="none" fill-rule="evenodd">
        <g fill="#09F" fill-rule="nonzero">
            <path d="M44.96 35.846V19.025c1.316-.127 3.144-.193 5.484-.197 1.87 0 3.17.353 3.903 1.058.733.706 1.1 2.027 1.1 3.963 0 1.948-.367 3.278-1.086 3.977-.72.699-2.037 1.045-3.842 1.045-1.806 0-3.259-.048-4.562-.143v7.118h-.998zm.997-7.85h4.487c1.493 0 2.532-.333 3.11-.89.576-.556.868-1.649.868-3.257s-.292-2.714-.869-3.277c-.577-.563-1.616-.869-3.109-.869-1.724 0-3.218 0-4.487.048v8.244zM59.934 20.667c.944-1.29 2.58-1.934 4.922-1.934 2.342 0 3.984.638 4.914 1.92.93 1.283 1.406 3.55 1.406 6.786 0 3.237-.469 5.496-1.406 6.786-.936 1.289-2.572 1.927-4.914 1.927-2.342 0-3.978-.679-4.922-1.94-.943-1.263-1.419-3.55-1.419-6.787 0-3.236.476-5.462 1.42-6.758zm9.035.678c-.774-1.144-2.145-1.719-4.113-1.723-1.962 0-3.34.583-4.12 1.737-.782 1.153-1.168 3.176-1.168 6.066 0 2.891.386 4.92 1.167 6.107.78 1.188 2.159 1.73 4.12 1.73 1.962 0 3.34-.576 4.114-1.716.774-1.14 1.154-3.176 1.154-6.107 0-2.932-.387-4.94-1.154-6.087v-.007zm-.964-6.718l-3.978 3.319-.434-.489 3.774-3.528.638.698zM81.46 28.117l-3.652-.61a3.625 3.625 0 0 1-2.526-1.317 5.176 5.176 0 0 1-.767-3.094 7.835 7.835 0 0 1 .292-2.382c.16-.55.521-1.02 1.012-1.316.48-.283 1.01-.47 1.561-.55a16.475 16.475 0 0 1 2.301-.095c1.567.023 3.13.136 4.684.34l-.095.732c-2.247-.108-3.767-.17-4.562-.17h-1.357a7.728 7.728 0 0 0-1.025.123c-.298.033-.583.14-.828.312a3.156 3.156 0 0 0-.537.597c-.19.29-.311.62-.353.964-.062.477-.091.957-.088 1.438-.067.866.134 1.73.577 2.477.49.57 1.185.924 1.935.984l3.659.61a3.809 3.809 0 0 1 2.627 1.31c.58.953.848 2.063.767 3.176a7.333 7.333 0 0 1-.32 2.368c-.178.56-.548 1.041-1.045 1.357a4.305 4.305 0 0 1-1.602.59c-.763.1-1.532.142-2.3.13-1.68.01-3.359-.094-5.024-.312l.068-.76c1.92.128 3.59.19 5.003.17.66 0 1.32-.048 1.975-.143.448-.073.876-.24 1.256-.489.37-.25.638-.626.753-1.058a6.505 6.505 0 0 0 .21-1.846 4.375 4.375 0 0 0-.583-2.586 3.028 3.028 0 0 0-2.016-.95zM96.075 30.112h-7.562v-.8h7.562zM111.39 19.025l-5.58 16.502a.489.489 0 0 1-.462.32h-1.324a.414.414 0 0 1-.434-.32l-5.587-16.502h1.052l4.752 14.189c.292.922.475 1.526.557 1.805h.678l.584-1.833 4.705-14.161h1.059zM124.03 34.964l.047.753c-1.561.068-3.953.102-7.175.102a2.716 2.716 0 0 1-1.935-.719 2.483 2.483 0 0 1-.747-1.866V21.61c-.026-.7.245-1.377.747-1.866.521-.49 1.22-.75 1.935-.72 3.226 0 5.618.032 7.175.096l-.048.753h-6.95a1.779 1.779 0 0 0-1.358.53 1.886 1.886 0 0 0-.51 1.356v4.676h7.8v.834h-7.786v5.802a1.9 1.9 0 0 0 .51 1.357 1.8 1.8 0 0 0 1.357.523l6.937.013zM139.9 19.025v16.333c0 .326-.149.488-.461.488h-1.317a.57.57 0 0 1-.557-.366l-7.27-13.755a48.372 48.372 0 0 1-.903-1.798h-.563V35.846h-.998v-16.34a.427.427 0 0 1 .482-.481h1.222a.59.59 0 0 1 .584.366l7.073 13.429c.131.208.498.907 1.1 2.097h.61v-1.154-14.738h.999zM144.734 35.846V19.025a75.213 75.213 0 0 1 5.682-.224c2.308 0 3.926.642 4.853 1.927.923 1.282 1.392 3.522 1.392 6.704 0 3.183-.469 5.429-1.392 6.704-.923 1.276-2.545 1.928-4.853 1.928-1.806 0-3.7-.073-5.682-.218zm.998-16.068v15.308c1.357.055 2.925.075 4.684.075 1.937 0 3.294-.568 4.073-1.703.778-1.136 1.16-3.144 1.147-6.026 0-2.877-.383-4.883-1.147-6.019-.765-1.135-2.123-1.705-4.073-1.71-1.725 0-3.286.025-4.684.075zM169.708 29.922h-7.78l-2.077 5.924h-1.045l5.879-16.489a.434.434 0 0 1 .434-.312h1.358c.2-.008.378.12.434.312l5.879 16.51h-1.045l-2.037-5.945zm-.312-.882l-2.716-7.824-.488-1.357h-.68l-.488 1.357-2.715 7.824h7.087zM181.71 28.117l-3.66-.61a3.625 3.625 0 0 1-2.524-1.317 5.176 5.176 0 0 1-.767-3.094 7.835 7.835 0 0 1 .291-2.382c.16-.55.521-1.02 1.012-1.316.48-.283 1.01-.47 1.561-.55a16.475 16.475 0 0 1 2.301-.095c1.567.023 3.131.136 4.684.34l-.095.732c-2.247-.108-3.767-.17-4.561-.17h-1.358a7.728 7.728 0 0 0-1.025.123c-.298.033-.583.14-.828.312a3.156 3.156 0 0 0-.537.597c-.19.29-.311.62-.353.964-.062.477-.091.957-.088 1.438-.067.866.134 1.73.577 2.477.49.57 1.185.924 1.935.984l3.659.61a3.809 3.809 0 0 1 2.627 1.31c.58.953.848 2.063.767 3.176a7.333 7.333 0 0 1-.32 2.368c-.178.56-.548 1.041-1.044 1.357a4.305 4.305 0 0 1-1.603.59c-.763.1-1.532.142-2.3.13-1.68.01-3.359-.094-5.024-.312l.068-.76c1.92.128 3.59.19 5.003.17a13.5 13.5 0 0 0 1.975-.143c.448-.073.876-.24 1.256-.489.37-.25.638-.626.753-1.058a6.505 6.505 0 0 0 .21-1.846 4.375 4.375 0 0 0-.583-2.586 3.021 3.021 0 0 0-2.01-.95z"/>
        </g>
        <g fill="#989898" fill-rule="nonzero">
            <path d="M45.129 13.976V1.226l.943-.441h3.394a4.46 4.46 0 0 1 3.293 1.269 4.193 4.193 0 0 1 1.201 3.1v4.459a4.213 4.213 0 0 1-1.201 3.1 4.46 4.46 0 0 1-3.293 1.263H45.13zm1.778-1.567h2.54a2.628 2.628 0 0 0 2.036-.903c.457-.523.7-1.199.678-1.893V5.155a2.748 2.748 0 0 0-.678-1.894 2.607 2.607 0 0 0-2.037-.902h-2.539v10.05zM63.81 13.542l-1.69.787h-.088v-.916c-.505.506-1.2.775-1.915.74a3.395 3.395 0 0 1-2.586-.984 3.304 3.304 0 0 1-.93-2.335 3.209 3.209 0 0 1 1.005-2.375 3.456 3.456 0 0 1 2.511-.943 2.716 2.716 0 0 1 1.915.74c0-1.032-.184-1.71-.55-2.036a2.037 2.037 0 0 0-1.358-.468h-2.159v-.088l.68-1.466h1.452c.96-.03 1.894.324 2.593.984a3.392 3.392 0 0 1 1.12 2.504v5.856zm-5.464-2.714c-.015.474.158.935.482 1.282.343.34.814.518 1.296.489a1.759 1.759 0 0 0 1.887-1.758 1.615 1.615 0 0 0-.55-1.269 1.901 1.901 0 0 0-1.357-.495 1.718 1.718 0 0 0-1.724 1.757l-.034-.006zM66.526 14.329V7.686a3.392 3.392 0 0 1 1.1-2.504 3.599 3.599 0 0 1 2.592-.984h1.202v.081l-.679 1.473h-.489a2.037 2.037 0 0 0-1.357.461c-.4.381-.605.923-.557 1.473v5.856l-1.69.787h-.122zM85.893 4.021v6.637c0 .955-.4 1.867-1.107 2.51a3.592 3.592 0 0 1-2.586.985 3.395 3.395 0 0 1-2.45-1.012 2.714 2.714 0 0 1-.36-.454c-.098.162-.217.31-.354.44a3.517 3.517 0 0 1-2.443 1.026 3.633 3.633 0 0 1-2.594-.984 3.392 3.392 0 0 1-1.106-2.511v-5.85l1.697-.787h.082v6.637c-.05.55.156 1.092.556 1.472.796.628 1.92.628 2.716 0 .4-.38.605-.922.556-1.472v-5.85l1.697-.787h.088v6.637c-.048.55.157 1.092.557 1.472.796.628 1.92.628 2.715 0 .4-.38.606-.922.557-1.472v-5.85l1.69-.787h.089zM89.137 2.44A1.072 1.072 0 1 1 90.656.927a1.072 1.072 0 0 1-1.519 1.513zm-.135 11.889v-9.5l1.697-.787h.088v9.5l-1.69.787h-.095zM93.903 14.329V7.686a3.392 3.392 0 0 1 1.1-2.504 3.898 3.898 0 0 1 5.179 0 3.345 3.345 0 0 1 1.107 2.504v5.856l-1.69.787h-.096V7.686a1.839 1.839 0 0 0-.55-1.473 2.085 2.085 0 0 0-1.357-.461 2.037 2.037 0 0 0-1.358.461c-.4.381-.604.923-.557 1.473v5.856l-1.69.787h-.088z"/>
        </g>
        <g fill-rule="nonzero">
            <rect width="37" height="37" fill="#0063A6" rx="3.58"/>
            <path fill="#0091F2" d="M30.328 13.621a1.046 1.046 0 0 1-.82 1.187l-7.147 1.16a1.046 1.046 0 0 1-1.183-.86c-.04-.273.027-.55.185-.774l1.838-2.566a8.187 8.187 0 0 0-6.985-1.036 8.27 8.27 0 0 0-5.219 4.796c-.23.651-.408 1.32-.535 2a.505.505 0 0 1-.424.446l-3.153.52a.523.523 0 0 1-.595-.434v-.113C6.607 12.11 10.927 7.29 16.656 6.382a12.433 12.433 0 0 1 8.945 2l1.732-2.4a.99.99 0 0 1 .66-.42 1.032 1.032 0 0 1 1.178.86l1.157 7.2zm.375 5.418c-.438 5.896-4.397 10.616-10.194 11.577a12.018 12.018 0 0 1-8.808-2.003l-1.694 2.404a1 1 0 0 1-.655.42 1.03 1.03 0 0 1-1.171-.854l-1.139-7.217c-.086-.567.29-1.1.845-1.195l7.04-1.162c.405-.066.81.123 1.024.48.215.356.198.81-.042 1.149l-1.8 2.55a7.978 7.978 0 0 0 6.893 1.057c2.337-.723 4.23-2.482 5.154-4.789.232-.651.412-1.321.536-2.003a.497.497 0 0 1 .413-.447l3.016-.5a.525.525 0 0 1 .589.433.68.68 0 0 1-.007.1z"/>
        </g>
    </g>
</svg>
