<svg xmlns="http://www.w3.org/2000/svg" width="214" height="37" viewBox="0 0 214 37">
    <g fill="none" fill-rule="nonzero" transform="translate(0 .925)">
        <g fill="#7A7ACE">
            <path d="M53.459 32.408l.161.673a20.88 20.88 0 0 1-4.537.423c-2.263 0-3.85-.59-4.761-1.77-.912-1.18-1.368-3.218-1.368-6.116 0-2.906.456-4.941 1.368-6.107.911-1.165 2.502-1.764 4.772-1.795a18.978 18.978 0 0 1 4.208.402l-.167.663c-1.34-.17-2.69-.252-4.041-.246-1.909 0-3.243.522-3.99 1.566-.749 1.044-1.117 2.88-1.117 5.522 0 2.64.374 4.478 1.116 5.516.743 1.039 2.082 1.566 3.99 1.566a28.413 28.413 0 0 0 4.366-.297zM57.338 19.475c.915-1.17 2.506-1.76 4.777-1.76 2.272 0 3.863.585 4.772 1.75.91 1.163 1.357 3.214 1.357 6.153 0 2.938-.452 4.984-1.357 6.148-.904 1.163-2.5 1.748-4.772 1.748-2.271 0-3.862-.585-4.777-1.759-.916-1.174-1.373-3.22-1.373-6.137 0-2.918.457-4.969 1.373-6.143zm8.768.62c-.744-1.043-2.074-1.565-3.99-1.565-1.91 0-3.238.522-3.997 1.566-.759 1.044-1.116 2.886-1.116 5.511s.38 4.462 1.116 5.506c.737 1.044 2.087 1.566 3.996 1.566 1.91 0 3.238-.522 3.991-1.566.754-1.044 1.116-2.875 1.116-5.516s-.368-4.463-1.116-5.501zM84.006 17.982v14.822c0 .298-.151.444-.453.444h-1.278a.562.562 0 0 1-.558-.329L74.68 20.44a44.207 44.207 0 0 1-.876-1.639h-.558V33.248h-.932V18.426a.376.376 0 0 1 .118-.333.437.437 0 0 1 .356-.11h1.183c.244-.016.47.12.558.333l6.86 12.187c.128.193.48.83 1.066 1.905h.592v-1.044-13.382h.96zM99.17 18.78H93.54v14.468h-.972V18.78h-5.581v-.799h12.212zM109.25 27.862h-7.524l-2.014 5.375h-1.016L104.4 18.26a.428.428 0 0 1 .424-.287h1.323a.44.44 0 0 1 .43.287l5.698 14.978h-1.016l-2.009-5.375zm-.307-.799l-2.651-7.098-.474-1.242h-.665l-.474 1.242-2.646 7.098h6.91zM122.333 25.284v.088c.978.013 1.896.441 2.495 1.164.546.874.801 1.881.731 2.891 0 1.535-.372 2.579-1.116 3.132-.744.553-2.047.842-3.907.866-2.35 0-4.175-.057-5.487-.177V17.982a50.716 50.716 0 0 1 4.778-.177c1.987 0 3.349.281 4.141.84.793.558 1.161 1.607 1.161 3.131.06.887-.18 1.769-.686 2.521a2.862 2.862 0 0 1-2.11.987zm-6.34-.308h4.208c1.488 0 2.51-.218 3.064-.653.558-.423.843-1.242.843-2.468 0-1.227-.313-2.166-.938-2.61-.625-.444-1.752-.652-3.393-.652-1.418 0-2.68.014-3.784.041v6.342zm0 .73v6.879c1.227.031 2.7.042 4.426.042 1.574 0 2.662-.221 3.265-.663.602-.442.902-1.312.898-2.61 0-1.398-.323-2.353-.96-2.854-.636-.501-1.78-.768-3.421-.794h-4.208zM130.52 33.248h-.97V17.982h.97zM136.102 17.982v12.766c-.022.465.162.918.508 1.252.36.322.843.494 1.34.475h6.318v.663c-1.422.073-3.583.11-6.486.11a2.71 2.71 0 0 1-1.942-.69 2.3 2.3 0 0 1-.709-1.737V17.982h.971zM148.22 33.248h-.972V17.982h.971zM152.908 33.248V17.982a84.5 84.5 0 0 1 5.514-.198c2.233 0 3.801.583 4.705 1.748.905 1.166 1.355 3.194 1.351 6.086 0 2.89-.45 4.918-1.35 6.08-.9 1.169-2.468 1.748-4.706 1.748-1.758 0-3.594-.062-5.514-.198zm.971-14.577v13.888c1.325.042 2.84.063 4.543.063 1.876 0 3.182-.522 3.907-1.566.726-1.044 1.117-2.855 1.117-5.465s-.374-4.436-1.117-5.47c-.742-1.032-2.048-1.565-3.907-1.565-1.678.031-3.194.07-4.549.115h.006zM177.109 27.862h-7.524l-2.015 5.375h-1.016l5.705-14.978a.428.428 0 0 1 .424-.287h1.323a.44.44 0 0 1 .43.287l5.698 14.978h-.994l-2.031-5.375zm-.307-.799l-2.651-7.098-.475-1.242h-.675l-.475 1.242-2.645 7.098h6.92zM182.88 33.248V17.982a84.5 84.5 0 0 1 5.514-.198c2.233 0 3.801.583 4.705 1.748.905 1.166 1.355 3.194 1.351 6.086 0 2.89-.45 4.918-1.35 6.08-.9 1.169-2.468 1.748-4.706 1.748a78.42 78.42 0 0 1-5.514-.198zm.971-14.577v13.888c1.325.042 2.84.063 4.543.063 1.876 0 3.187-.522 3.907-1.566.72-1.044 1.117-2.855 1.117-5.465s-.374-4.436-1.117-5.47c-.742-1.032-2.048-1.565-3.907-1.565-1.674.031-3.188.07-4.543.115zM207.862 32.475l.05.684c-1.514.063-3.832.092-6.954.089a2.702 2.702 0 0 1-1.88-.653 2.156 2.156 0 0 1-.726-1.69v-10.58a2.17 2.17 0 0 1 .725-1.69 2.702 2.702 0 0 1 1.881-.653c3.122 0 5.44.03 6.954.089l-.05.689h-6.742a1.797 1.797 0 0 0-1.3.475c-.34.335-.52.785-.497 1.247v4.248h7.574v.752h-7.574v5.266c-.021.463.158.914.496 1.252.345.32.816.493 1.3.475h6.743z"/>
        </g>
        <g fill="#989898">
            <path d="M43.862 13.931V1.854l.92-.413h3.285a4.423 4.423 0 0 1 3.213 1.203A3.89 3.89 0 0 1 52.446 5.6v4.22a3.928 3.928 0 0 1-1.166 2.935 4.418 4.418 0 0 1-3.213 1.198l-4.205-.022zm1.733-1.486h2.472a2.61 2.61 0 0 0 2.024-.855c.43-.501.653-1.14.623-1.792V5.6a2.57 2.57 0 0 0-.623-1.796 2.608 2.608 0 0 0-2.024-.872h-2.472v9.513zM62.074 13.517l-1.637.746h-.09v-.87c-.49.479-1.167.734-1.862.701a3.37 3.37 0 0 1-2.534-.93 3.088 3.088 0 0 1-.903-2.211 2.986 2.986 0 0 1 .981-2.249 3.422 3.422 0 0 1 2.45-.893 2.736 2.736 0 0 1 1.862.702c0-.976-.187-1.618-.56-1.927a1.988 1.988 0 0 0-1.324-.447H56.35v-.081l.723-1.389h1.419a3.58 3.58 0 0 1 2.506.931 3.133 3.133 0 0 1 1.071 2.374l.006 5.543zm-5.321-2.564a1.67 1.67 0 0 0 .465 1.214c.337.32.797.488 1.267.463.475.031.942-.13 1.29-.444a1.65 1.65 0 0 0 .55-1.217 1.522 1.522 0 0 0-.561-1.209 1.934 1.934 0 0 0-1.29-.462 1.709 1.709 0 0 0-1.267.49 1.607 1.607 0 0 0-.454 1.165zM64.676 14.263V7.974A3.16 3.16 0 0 1 65.752 5.6a3.581 3.581 0 0 1 2.523-.93h1.172v.081l-.69 1.394h-.47a2.017 2.017 0 0 0-1.318.441c-.396.357-.603.87-.56 1.394v5.537l-1.65.746h-.083zM83.588 4.511v6.278a3.16 3.16 0 0 1-1.076 2.374 3.581 3.581 0 0 1-2.523.931 3.336 3.336 0 0 1-2.39-.958 2.522 2.522 0 0 1-.347-.43 2.402 2.402 0 0 1-.342.425 3.518 3.518 0 0 1-2.388.963 3.615 3.615 0 0 1-2.524-.93 3.123 3.123 0 0 1-1.076-2.375V5.247l1.648-.736h.09v6.278c-.04.524.166 1.036.56 1.394a2.204 2.204 0 0 0 2.647 0 1.69 1.69 0 0 0 .561-1.394V5.247l1.61-.736h.083v6.278a1.69 1.69 0 0 0 .561 1.394 2.204 2.204 0 0 0 2.647 0c.394-.358.6-.87.56-1.394V5.247l1.61-.736h.09zM86.75 3.009a.982.982 0 0 1-.302-.719.96.96 0 0 1 .303-.713 1.053 1.053 0 0 1 1.475 0 .96.96 0 0 1 .302.713.982.982 0 0 1-.303.719 1.07 1.07 0 0 1-1.474 0zm-.128 11.254V5.247l1.648-.736h.09v9.006l-1.649.746h-.09zM91.393 14.263V7.974A3.16 3.16 0 0 1 92.47 5.6a3.558 3.558 0 0 1 2.523-.93c.935-.024 1.841.31 2.523.93a3.123 3.123 0 0 1 1.077 2.374v5.543l-1.649.746h-.061V7.974a1.71 1.71 0 0 0-.561-1.393 2.204 2.204 0 0 0-2.647 0c-.394.358-.6.87-.56 1.393v5.543l-1.649.746h-.073z"/>
        </g>
        <rect width="36.346" height="34.225" fill="#303580" rx="4.22"/>
        <path fill="#8282D2" d="M17.843 10.538C16.309 8.16 11.305 5.34 8.61 6.487c-.456.173-.73.603-.672 1.052 0 .879.19 14.095.19 14.095 0 .174.292.437.867.437 3.203-.106 6.33.902 8.756 2.82l.092-14.353z"/>
        <path fill="#8282D2" d="M6.92 9.956a9.963 9.963 0 0 0-1.44.614c-.525.302-.846.826-.854 1.393 0 .876.195 13.95.195 13.95 0 .174.384.352 1.147.09a24.768 24.768 0 0 1 9.231-1.32 13.514 13.514 0 0 0-6.05-1.316c-.957 0-2.012-.435-2.11-1.488 0-3.952-.12-7.987-.12-11.923zM19.164 10.538c1.456-2.378 6.507-5.198 9.22-4.051.463.171.743.602.685 1.052 0 .879-.098 14.095-.098 14.095 0 .174-.29.437-.876.437-3.26-.105-6.446.901-8.93 2.82V10.538z"/>
        <path fill="#8282D2" d="M30.058 9.956a5.32 5.32 0 0 1 1.454.613c.536.303.864.832.869 1.404 0 .874-.191 13.94-.191 13.94 0 .174-.388.352-1.159.09a24.569 24.569 0 0 0-9.223-1.33 13.403 13.403 0 0 1 6.013-1.315c.974 0 2.138-.435 2.138-1.487 0-3.949.099-7.982.099-11.915z"/>
    </g>
</svg>
