<svg xmlns="http://www.w3.org/2000/svg" width="160" height="37" viewBox="0 0 160 37">
    <g fill="none" fill-rule="evenodd">
        <path fill="#FF9C1E" d="M45.715 28.569h4.352c1.45-.032 2.455-.325 3.016-.88.559-.554.839-1.626.839-3.217 0-1.59-.28-2.67-.84-3.24-.56-.57-1.565-.856-3.015-.856-1.671 0-3.123.016-4.352.049v8.144zm-.97 7.758V19.702c1.278-.129 3.051-.193 5.322-.193 1.813 0 3.075.35 3.784 1.048.71.699 1.064 2.004 1.064 3.915 0 1.928-.351 3.238-1.052 3.928-.702.691-1.944 1.036-3.725 1.036-1.688 0-3.162-.048-4.423-.144v7.035h-.97zM59.283 28.11h4.386c1.462-.032 2.476-.312 3.04-.843.564-.53.846-1.542.846-3.035 0-1.495-.282-2.51-.846-3.048-.564-.538-1.578-.808-3.04-.808-1.717 0-3.179.016-4.386.049v7.686zm9.87 8.217H68.08l-1.67-5.229c-.476-1.397-1.334-2.096-2.574-2.096-1.176 0-2.694-.024-4.553-.072v7.397h-.978V19.702c1.287-.129 3.075-.193 5.364-.193 1.828 0 3.1.33 3.815.988.715.659 1.072 1.895 1.072 3.71 0 1.446-.234 2.503-.703 3.169-.47.667-1.244 1.072-2.325 1.217v.12c.843.24 1.47 1.012 1.884 2.313l1.74 5.301zM82.618 21.47c-.745-1.151-2.066-1.728-3.963-1.728-1.896 0-3.22.58-3.973 1.74-.752 1.16-1.13 3.193-1.13 6.1 0 2.906.378 4.94 1.13 6.1.753 1.16 2.077 1.74 3.973 1.74 1.897 0 3.218-.577 3.963-1.728.744-1.152 1.117-3.189 1.117-6.112s-.373-4.96-1.117-6.112m-8.712-.686c.91-1.299 2.492-1.948 4.75-1.948 2.257 0 3.836.646 4.738 1.936.9 1.29 1.352 3.56 1.352 6.81 0 3.25-.452 5.52-1.352 6.81-.902 1.29-2.48 1.935-4.739 1.935-2.257 0-3.84-.65-4.749-1.947-.91-1.299-1.364-3.564-1.364-6.798s.455-5.5 1.364-6.798M90.458 19.786v14.919c1.32.047 2.828.07 4.526.07 1.869 0 3.173-.553 3.912-1.662.739-1.109 1.108-3.065 1.108-5.867 0-2.804-.37-4.76-1.108-5.868-.739-1.108-2.043-1.663-3.912-1.663-1.666 0-3.174.024-4.526.071m-.966 15.655V19.05a73.629 73.629 0 0 1 5.492-.214c2.23 0 3.794.626 4.69 1.876.896 1.252 1.343 3.43 1.343 6.534 0 3.104-.447 5.281-1.343 6.532-.896 1.251-2.46 1.877-4.69 1.877-1.745 0-3.575-.072-5.492-.214M116.61 19.51v10.373c0 2.332-.433 3.989-1.3 4.97-.865.983-2.341 1.474-4.426 1.474-2.118 0-3.614-.49-4.487-1.473-.875-.982-1.312-2.64-1.312-4.971V19.509h.987v10.374c0 2.045.356 3.482 1.07 4.312.713.83 1.953 1.246 3.718 1.246 1.732 0 2.96-.415 3.681-1.246.722-.83 1.083-2.267 1.083-4.312V19.509h.986zM132.203 20.386h-5.628v15.941h-.97v-15.94H120v-.878h12.203zM143.635 21.47c-.745-1.151-2.066-1.728-3.963-1.728-1.896 0-3.22.58-3.973 1.74-.753 1.16-1.13 3.193-1.13 6.1 0 2.906.377 4.94 1.13 6.1.753 1.16 2.077 1.74 3.973 1.74 1.897 0 3.218-.577 3.963-1.728.744-1.152 1.117-3.189 1.117-6.112s-.373-4.96-1.117-6.112m-8.712-.686c.91-1.299 2.492-1.948 4.75-1.948 2.257 0 3.836.646 4.737 1.936.901 1.29 1.353 3.56 1.353 6.81 0 3.25-.452 5.52-1.353 6.81s-2.48 1.935-4.738 1.935c-2.257 0-3.84-.65-4.749-1.947-.91-1.299-1.364-3.564-1.364-6.798s.455-5.5 1.364-6.798M156.509 27.908l-3.515-.59c-1.125-.173-1.933-.598-2.425-1.275-.493-.677-.738-1.677-.738-2.999 0-.96.093-1.728.28-2.303.188-.574.513-1 .973-1.275a4.04 4.04 0 0 1 1.5-.532c.54-.078 1.277-.11 2.214-.094 1.672.032 3.172.142 4.5.33l-.095.71c-2.155-.11-3.616-.166-4.382-.166-.562 0-.992.008-1.288.024a8.352 8.352 0 0 0-.984.117c-.36.064-.625.166-.797.308a2.896 2.896 0 0 0-.515.578c-.173.245-.286.555-.34.933a9.858 9.858 0 0 0-.082 1.393c0 1.103.183 1.901.55 2.397.367.496.988.815 1.863.957l3.515.59c1.187.174 2.027.595 2.519 1.263.492.67.738 1.697.738 3.082 0 .945-.101 1.709-.304 2.29-.204.584-.54 1.02-1.008 1.312a4.06 4.06 0 0 1-1.535.567c-.555.086-1.293.13-2.214.13-1.75 0-3.359-.103-4.827-.307l.07-.732c1.843.125 3.444.18 4.803.164.813-.015 1.445-.062 1.899-.141a3.074 3.074 0 0 0 1.206-.472c.352-.237.594-.58.727-1.028.133-.449.2-1.043.2-1.783 0-1.18-.188-2.015-.563-2.503-.375-.488-1.024-.803-1.945-.945"/>
        <path fill="#999" d="M46.526 12.604h2.538c.855 0 1.546-.29 2.074-.872.427-.469.64-1.08.64-1.837V5.578c0-.756-.213-1.369-.64-1.837-.528-.581-1.22-.872-2.074-.872h-2.538v9.735zm-1.78 1.523V1.77l.944-.424h3.374c1.353 0 2.45.41 3.294 1.228.8.773 1.201 1.775 1.201 3.005v4.317c0 1.224-.4 2.226-1.201 3.005-.844.818-1.941 1.227-3.294 1.227h-4.318zM58.076 10.88c0 .481.165.88.497 1.193.32.304.767.455 1.344.455.601 0 1.068-.155 1.4-.463.367-.347.552-.736.552-1.17 0-.486-.19-.881-.57-1.184-.382-.304-.838-.455-1.373-.455-.558 0-1.006.16-1.344.479-.337.32-.506.701-.506 1.145zm5.653 2.517l-1.749.73h-.093v-.852c-.49.46-1.15.69-1.979.69-1.148 0-2.041-.305-2.68-.918-.637-.611-.957-1.333-.957-2.167 0-.866.347-1.602 1.04-2.209.67-.584 1.535-.877 2.597-.877.755 0 1.414.23 1.98.69 0-.958-.19-1.588-.571-1.892-.369-.291-.838-.438-1.409-.438H57.67v-.081l.738-1.364h1.5c1.074 0 1.967.306 2.679.917.76.655 1.142 1.433 1.142 2.33v5.44zM65.763 14.127v-6.17c0-.893.357-1.67 1.07-2.33.667-.612 1.503-.918 2.51-.918h1.165v.081l-.69 1.365h-.475c-.517 0-.956.144-1.315.434-.36.29-.54.745-.54 1.368v5.44l-1.639.73h-.086zM84.746 4.71v6.17c0 .893-.365 1.67-1.094 2.33-.682.612-1.539.917-2.567.917a3.462 3.462 0 0 1-2.427-.942c-.13-.119-.246-.26-.353-.422a2.357 2.357 0 0 1-.352.414c-.736.633-1.544.95-2.427.95-1.018 0-1.873-.305-2.568-.918-.73-.648-1.094-1.426-1.094-2.33V5.44l1.677-.73h.088v6.17c0 .623.184 1.08.552 1.369.367.29.815.434 1.345.434s.978-.144 1.345-.434c.368-.29.552-.746.552-1.369V5.44l1.677-.73h.087v6.17c0 .623.184 1.08.552 1.369.367.29.816.434 1.346.434.529 0 .977-.144 1.344-.434.368-.29.552-.746.552-1.369V5.44l1.677-.73h.088zM88.305 14.8V5.46l1.61-.772H90v9.34l-1.61.772h-.085zm.127-11.663a1.032 1.032 0 0 1-.296-.742c0-.288.098-.536.296-.74a.962.962 0 0 1 .72-.31.96.96 0 0 1 .72.31c.198.204.297.452.297.74 0 .289-.099.536-.296.742a.962.962 0 0 1-.72.308.963.963 0 0 1-.721-.308zM93.56 14.127v-6.17c0-.893.371-1.67 1.113-2.33.696-.612 1.567-.918 2.615-.918 1.036 0 1.908.306 2.615.918.742.65 1.114 1.426 1.114 2.33v5.44l-1.708.73h-.09v-6.17c0-.623-.186-1.079-.56-1.368-.375-.29-.832-.434-1.37-.434-.54 0-.997.144-1.371.434-.375.29-.562.745-.562 1.368v5.44l-1.707.73h-.09z"/>
        <path fill="#D16721" d="M34.587 37H2.413A2.42 2.42 0 0 1 0 34.587V2.413A2.42 2.42 0 0 1 2.413 0h32.174A2.42 2.42 0 0 1 37 2.413v32.174A2.42 2.42 0 0 1 34.587 37"/>
        <path fill="#FFB72A" d="M30.34 25.822V21.46l-4.81 2.503v4.527m4.81-8.51l-5.365-2.59-5.365 2.59 5.365 2.59 5.365-2.59zm-6.29-3.888V12.21l-4.81 2.394V18.5l4.81-2.408zm0-5.732L18.5 7.77l-5.55 2.59 5.55 2.59 5.55-2.59zm-6.29 15.692V21.46l-5.18 2.604v4.832m4.81-8.916l-5.365-2.59-5.365 2.59 5.365 2.59 5.365-2.59zm14.43 5.933c0 .654-.33 1.268-.87 1.554l-5.484 3.052c-.22.136-.453.191-.697.191-.246 0-.478-.055-.698-.191l-5.485-3.052a.194.194 0 0 1-.086-.055.188.188 0 0 1-.085.055l-5.485 3.052c-.22.136-.453.191-.698.191-.245 0-.477-.055-.698-.191L6.05 27.467c-.539-.286-.87-.9-.87-1.554v-5.669c0-.695.38-1.321.955-1.608l5.314-2.534V10.65c0-.695.38-1.322.955-1.608l5.484-2.616c.196-.096.404-.137.612-.137.209 0 .417.041.612.137l5.485 2.616c.575.286.955.913.955 1.608v5.45l5.313 2.535c.588.287.955.913.955 1.608v5.67z"/>
    </g>
</svg>
